<svg width="519" height="684" viewBox="0 0 519 684" fill="none" xmlns="http://www.w3.org/2000/svg">
    <g clip-path="url(#clip0_316_223)">
    <mask id="mask0_316_223" style="mask-type:alpha" maskUnits="userSpaceOnUse" x="2" y="2" width="531" height="696">
    <path d="M10.6406 297.434C13.4151 295.883 14.4069 292.377 12.8558 289.603C11.3048 286.828 7.79837 285.836 5.02393 287.387C2.24949 288.938 1.2577 292.445 2.80871 295.219C4.35972 297.994 7.86619 298.985 10.6406 297.434Z" fill="#D9D9D9"/>
    <path d="M144.602 222.546C147.376 220.995 148.368 217.489 146.817 214.714C145.266 211.94 141.76 210.948 138.985 212.499C136.211 214.05 135.219 217.556 136.77 220.331C138.321 223.105 141.827 224.097 144.602 222.546Z" fill="#D9D9D9"/>
    <path d="M278.564 147.656C281.339 146.105 282.33 142.599 280.779 139.824C279.228 137.05 275.722 136.058 272.948 137.609C270.173 139.16 269.181 142.667 270.732 145.441C272.283 148.216 275.79 149.207 278.564 147.656Z" fill="#D9D9D9"/>
    <path d="M412.525 72.7672C415.3 71.2162 416.292 67.7098 414.741 64.9353C413.19 62.1609 409.683 61.1691 406.909 62.7201C404.134 64.2711 403.142 67.7776 404.693 70.552C406.244 73.3265 409.751 74.3182 412.525 72.7672Z" fill="#D9D9D9"/>
    <path d="M37.433 282.457C40.2074 280.906 41.1992 277.4 39.6482 274.625C38.0972 271.851 34.5907 270.859 31.8163 272.41C29.0419 273.961 28.0501 277.468 29.6011 280.242C31.1521 283.017 34.6586 284.008 37.433 282.457Z" fill="#D9D9D9"/>
    <path d="M171.394 207.567C174.169 206.016 175.161 202.51 173.61 199.735C172.059 196.961 168.552 195.969 165.778 197.52C163.003 199.071 162.011 202.578 163.562 205.352C165.113 208.127 168.62 209.118 171.394 207.567Z" fill="#D9D9D9"/>
    <path d="M305.356 132.679C308.13 131.128 309.122 127.621 307.571 124.847C306.02 122.073 302.513 121.081 299.739 122.632C296.964 124.183 295.973 127.689 297.524 130.464C299.075 133.238 302.581 134.23 305.356 132.679Z" fill="#D9D9D9"/>
    <path d="M439.317 57.7899C442.091 56.2389 443.083 52.7325 441.532 49.958C439.981 47.1836 436.475 46.1918 433.7 47.7428C430.926 49.2938 429.934 52.8003 431.485 55.5747C433.036 58.3492 436.542 59.3409 439.317 57.7899Z" fill="#D9D9D9"/>
    <path d="M64.2252 267.479C66.9997 265.928 67.9914 262.421 66.4404 259.647C64.8894 256.872 61.383 255.881 58.6085 257.432C55.8341 258.983 54.8423 262.489 56.3933 265.263C57.9443 268.038 61.4508 269.03 64.2252 267.479Z" fill="#D9D9D9"/>
    <path d="M198.187 192.59C200.962 191.039 201.953 187.533 200.402 184.758C198.851 181.984 195.345 180.992 192.57 182.543C189.796 184.094 188.804 187.6 190.355 190.375C191.906 193.149 195.413 194.141 198.187 192.59Z" fill="#D9D9D9"/>
    <path d="M332.148 117.7C334.923 116.149 335.915 112.643 334.364 109.868C332.813 107.094 329.306 106.102 326.532 107.653C323.757 109.204 322.766 112.711 324.317 115.485C325.868 118.26 329.374 119.251 332.148 117.7Z" fill="#D9D9D9"/>
    <path d="M466.11 42.8114C468.884 41.2603 469.876 37.7539 468.325 34.9794C466.774 32.205 463.268 31.2132 460.493 32.7642C457.719 34.3152 456.727 37.8217 458.278 40.5961C459.829 43.3706 463.335 44.3624 466.11 42.8114Z" fill="#D9D9D9"/>
    <path d="M91.0175 252.501C93.7919 250.95 94.7837 247.443 93.2327 244.669C91.6817 241.895 88.1752 240.903 85.4008 242.454C82.6263 244.005 81.6345 247.511 83.1855 250.286C84.7366 253.06 88.243 254.052 91.0175 252.501Z" fill="#D9D9D9"/>
    <path d="M224.979 177.613C227.753 176.062 228.745 172.555 227.194 169.781C225.643 167.006 222.136 166.014 219.362 167.565C216.588 169.116 215.596 172.623 217.147 175.397C218.698 178.172 222.204 179.164 224.979 177.613Z" fill="#D9D9D9"/>
    <path d="M358.941 102.723C361.716 101.172 362.708 97.666 361.157 94.8915C359.606 92.1171 356.099 91.1253 353.325 92.6763C350.55 94.2273 349.558 97.7338 351.109 100.508C352.66 103.283 356.167 104.274 358.941 102.723Z" fill="#D9D9D9"/>
    <path d="M492.902 27.834C495.676 26.283 496.668 22.7765 495.117 20.0021C493.566 17.2276 490.06 16.2358 487.285 17.7869C484.511 19.3379 483.519 22.8443 485.07 25.6188C486.621 28.3932 490.128 29.385 492.902 27.834Z" fill="#D9D9D9"/>
    <path d="M117.81 237.523C120.585 235.972 121.576 232.466 120.025 229.692C118.474 226.917 114.968 225.925 112.193 227.476C109.419 229.027 108.427 232.534 109.978 235.308C111.529 238.083 115.036 239.074 117.81 237.523Z" fill="#D9D9D9"/>
    <path d="M251.772 162.634C254.546 161.083 255.538 157.577 253.987 154.802C252.436 152.028 248.929 151.036 246.155 152.587C243.38 154.138 242.389 157.644 243.94 160.419C245.491 163.193 248.997 164.185 251.772 162.634Z" fill="#D9D9D9"/>
    <path d="M385.733 87.7452C388.507 86.1942 389.499 82.6877 387.948 79.9133C386.397 77.1388 382.89 76.1471 380.116 77.6981C377.341 79.2491 376.35 82.7555 377.901 85.53C379.452 88.3044 382.958 89.2962 385.733 87.7452Z" fill="#D9D9D9"/>
    <path d="M519.695 12.8562C522.469 11.3051 523.461 7.79868 521.91 5.02424C520.359 2.2498 516.853 1.258 514.078 2.80901C511.304 4.36002 510.312 7.8665 511.863 10.6409C513.414 13.4154 516.921 14.4072 519.695 12.8562Z" fill="#D9D9D9"/>
    <path d="M191.123 620.282C193.897 618.731 194.889 615.225 193.338 612.45C191.787 609.676 188.281 608.684 185.506 610.235C182.732 611.786 181.74 615.293 183.291 618.067C184.842 620.841 188.348 621.833 191.123 620.282Z" fill="#D9D9D9"/>
    <path d="M325.085 545.394C327.86 543.843 328.852 540.337 327.301 537.562C325.75 534.788 322.243 533.796 319.469 535.347C316.694 536.898 315.702 540.404 317.253 543.179C318.804 545.953 322.311 546.945 325.085 545.394Z" fill="#D9D9D9"/>
    <path d="M459.047 470.504C461.821 468.953 462.813 465.447 461.262 462.672C459.711 459.898 456.204 458.906 453.43 460.457C450.656 462.008 449.664 465.514 451.215 468.289C452.766 471.063 456.272 472.055 459.047 470.504Z" fill="#D9D9D9"/>
    <path d="M217.916 605.304C220.69 603.753 221.682 600.246 220.131 597.472C218.58 594.697 215.073 593.706 212.299 595.257C209.525 596.808 208.533 600.314 210.084 603.089C211.635 605.863 215.141 606.855 217.916 605.304Z" fill="#D9D9D9"/>
    <path d="M351.877 530.415C354.652 528.864 355.643 525.358 354.092 522.583C352.541 519.809 349.035 518.817 346.261 520.368C343.486 521.919 342.494 525.426 344.045 528.2C345.596 530.975 349.103 531.966 351.877 530.415Z" fill="#D9D9D9"/>
    <path d="M485.84 455.527C488.614 453.976 489.606 450.469 488.055 447.695C486.504 444.921 482.997 443.929 480.223 445.48C477.448 447.031 476.457 450.537 478.008 453.312C479.559 456.086 483.065 457.078 485.84 455.527Z" fill="#D9D9D9"/>
    <path d="M244.709 590.327C247.483 588.776 248.475 585.27 246.924 582.495C245.373 579.721 241.866 578.729 239.092 580.28C236.317 581.831 235.326 585.337 236.877 588.112C238.428 590.886 241.934 591.878 244.709 590.327Z" fill="#D9D9D9"/>
    <path d="M378.67 515.438C381.444 513.887 382.436 510.38 380.885 507.606C379.334 504.831 375.827 503.839 373.053 505.39C370.278 506.942 369.287 510.448 370.838 513.222C372.389 515.997 375.895 516.989 378.67 515.438Z" fill="#D9D9D9"/>
    <path d="M512.631 440.548C515.405 438.997 516.397 435.491 514.846 432.716C513.295 429.942 509.788 428.95 507.014 430.501C504.24 432.052 503.248 435.558 504.799 438.333C506.35 441.107 509.856 442.099 512.631 440.548Z" fill="#D9D9D9"/>
    <path d="M271.5 575.347C274.275 573.796 275.266 570.29 273.715 567.515C272.164 564.741 268.658 563.749 265.883 565.3C263.109 566.851 262.117 570.358 263.668 573.132C265.219 575.907 268.726 576.898 271.5 575.347Z" fill="#D9D9D9"/>
    <path d="M405.463 500.459C408.237 498.908 409.229 495.402 407.678 492.627C406.127 489.853 402.62 488.861 399.846 490.412C397.071 491.963 396.08 495.47 397.631 498.244C399.182 501.019 402.688 502.01 405.463 500.459Z" fill="#D9D9D9"/>
    <path d="M298.292 560.371C301.067 558.82 302.059 555.314 300.508 552.539C298.957 549.765 295.45 548.773 292.676 550.324C289.901 551.875 288.909 555.382 290.46 558.156C292.011 560.931 295.518 561.922 298.292 560.371Z" fill="#D9D9D9"/>
    <path d="M432.254 485.482C435.028 483.931 436.02 480.424 434.469 477.65C432.918 474.875 429.412 473.884 426.637 475.435C423.863 476.986 422.871 480.492 424.422 483.266C425.973 486.041 429.479 487.033 432.254 485.482Z" fill="#D9D9D9"/>
    <path d="M100.507 458.189C103.282 456.638 104.274 453.131 102.723 450.357C101.172 447.582 97.6652 446.591 94.8908 448.142C92.1163 449.693 91.1245 453.199 92.6755 455.974C94.2265 458.748 97.733 459.74 100.507 458.189Z" fill="#D9D9D9"/>
    <path d="M234.469 383.299C237.243 381.748 238.235 378.241 236.684 375.467C235.133 372.692 231.627 371.701 228.852 373.252C226.078 374.803 225.086 378.309 226.637 381.083C228.188 383.858 231.695 384.85 234.469 383.299Z" fill="#D9D9D9"/>
    <path d="M368.43 308.41C371.205 306.859 372.196 303.353 370.645 300.578C369.094 297.804 365.588 296.812 362.814 298.363C360.039 299.914 359.047 303.421 360.598 306.195C362.149 308.97 365.656 309.961 368.43 308.41Z" fill="#D9D9D9"/>
    <path d="M502.393 233.521C505.167 231.97 506.159 228.463 504.608 225.689C503.057 222.914 499.55 221.923 496.776 223.474C494.002 225.025 493.01 228.531 494.561 231.306C496.112 234.08 499.618 235.072 502.393 233.521Z" fill="#D9D9D9"/>
    <path d="M127.299 443.211C130.074 441.66 131.065 438.153 129.514 435.379C127.963 432.605 124.457 431.613 121.683 433.164C118.908 434.715 117.916 438.221 119.467 440.996C121.018 443.77 124.525 444.762 127.299 443.211Z" fill="#D9D9D9"/>
    <path d="M261.262 368.322C264.036 366.771 265.028 363.264 263.477 360.49C261.926 357.715 258.419 356.723 255.645 358.274C252.87 359.825 251.879 363.332 253.43 366.106C254.981 368.881 258.487 369.873 261.262 368.322Z" fill="#D9D9D9"/>
    <path d="M395.223 293.432C397.997 291.881 398.989 288.374 397.438 285.6C395.887 282.825 392.38 281.834 389.606 283.385C386.832 284.936 385.84 288.442 387.391 291.216C388.942 293.991 392.448 294.983 395.223 293.432Z" fill="#D9D9D9"/>
    <path d="M529.184 218.543C531.959 216.992 532.95 213.486 531.399 210.711C529.848 207.937 526.342 206.945 523.567 208.496C520.793 210.047 519.801 213.554 521.352 216.328C522.903 219.102 526.41 220.094 529.184 218.543Z" fill="#D9D9D9"/>
    <path d="M154.092 428.232C156.866 426.681 157.858 423.175 156.307 420.4C154.756 417.626 151.25 416.634 148.475 418.185C145.701 419.736 144.709 423.243 146.26 426.017C147.811 428.792 151.317 429.783 154.092 428.232Z" fill="#D9D9D9"/>
    <path d="M288.053 353.344C290.828 351.793 291.819 348.286 290.268 345.512C288.717 342.738 285.211 341.746 282.437 343.297C279.662 344.848 278.67 348.354 280.221 351.129C281.772 353.903 285.279 354.895 288.053 353.344Z" fill="#D9D9D9"/>
    <path d="M422.016 278.455C424.79 276.904 425.782 273.398 424.231 270.624C422.68 267.849 419.173 266.857 416.399 268.408C413.624 269.959 412.633 273.466 414.184 276.24C415.735 279.015 419.241 280.006 422.016 278.455Z" fill="#D9D9D9"/>
    <path d="M180.885 413.255C183.659 411.704 184.651 408.198 183.1 405.423C181.549 402.649 178.042 401.657 175.268 403.208C172.493 404.759 171.502 408.266 173.053 411.04C174.604 413.814 178.11 414.806 180.885 413.255Z" fill="#D9D9D9"/>
    <path d="M314.846 338.365C317.621 336.814 318.612 333.308 317.061 330.533C315.51 327.759 312.004 326.767 309.229 328.318C306.455 329.869 305.463 333.375 307.014 336.15C308.565 338.924 312.072 339.916 314.846 338.365Z" fill="#D9D9D9"/>
    <path d="M448.808 263.477C451.583 261.926 452.575 258.419 451.024 255.645C449.473 252.87 445.966 251.879 443.192 253.43C440.417 254.981 439.426 258.487 440.977 261.262C442.528 264.036 446.034 265.028 448.808 263.477Z" fill="#D9D9D9"/>
    <path d="M207.677 398.277C210.452 396.726 211.444 393.22 209.893 390.445C208.342 387.671 204.835 386.679 202.061 388.23C199.286 389.781 198.294 393.288 199.845 396.062C201.396 398.837 204.903 399.828 207.677 398.277Z" fill="#D9D9D9"/>
    <path d="M341.638 323.388C344.413 321.837 345.405 318.331 343.854 315.556C342.303 312.782 338.796 311.79 336.022 313.341C333.247 314.892 332.256 318.398 333.807 321.173C335.358 323.947 338.864 324.939 341.638 323.388Z" fill="#D9D9D9"/>
    <path d="M475.6 248.499C478.374 246.948 479.366 243.442 477.815 240.667C476.264 237.893 472.757 236.901 469.983 238.452C467.209 240.003 466.217 243.51 467.768 246.284C469.319 249.059 472.825 250.05 475.6 248.499Z" fill="#D9D9D9"/>
    <path d="M441.743 691.166C444.517 689.615 445.509 686.109 443.958 683.334C442.407 680.56 438.9 679.568 436.126 681.119C433.352 682.67 432.36 686.177 433.911 688.951C435.462 691.726 438.968 692.717 441.743 691.166Z" fill="#D9D9D9"/>
    <path d="M468.536 676.189C471.31 674.638 472.302 671.131 470.751 668.357C469.2 665.582 465.693 664.591 462.919 666.142C460.145 667.693 459.153 671.199 460.704 673.973C462.255 676.748 465.761 677.74 468.536 676.189Z" fill="#D9D9D9"/>
    <path d="M495.327 661.211C498.102 659.66 499.094 656.153 497.543 653.379C495.992 650.604 492.485 649.613 489.711 651.164C486.936 652.715 485.945 656.221 487.496 658.996C489.047 661.77 492.553 662.762 495.327 661.211Z" fill="#D9D9D9"/>
    <path d="M522.12 646.232C524.894 644.681 525.886 641.175 524.335 638.4C522.784 635.626 519.278 634.634 516.503 636.185C513.729 637.736 512.737 641.243 514.288 644.017C515.839 646.791 519.345 647.783 522.12 646.232Z" fill="#D9D9D9"/>
    <path d="M55.5743 377.813C58.3488 376.262 59.3406 372.755 57.7896 369.981C56.2386 367.206 52.7321 366.214 49.9576 367.766C47.1832 369.317 46.1914 372.823 47.7424 375.597C49.2934 378.372 52.7999 379.364 55.5743 377.813Z" fill="#D9D9D9"/>
    <path d="M189.535 302.922C192.31 301.371 193.302 297.865 191.751 295.09C190.2 292.316 186.693 291.324 183.919 292.875C181.144 294.426 180.152 297.932 181.703 300.707C183.254 303.481 186.761 304.473 189.535 302.922Z" fill="#D9D9D9"/>
    <path d="M323.497 228.033C326.271 226.482 327.263 222.976 325.712 220.202C324.161 217.427 320.654 216.435 317.88 217.986C315.106 219.537 314.114 223.044 315.665 225.818C317.216 228.593 320.722 229.584 323.497 228.033Z" fill="#D9D9D9"/>
    <path d="M457.459 153.145C460.233 151.594 461.225 148.087 459.674 145.313C458.123 142.538 454.617 141.547 451.842 143.098C449.068 144.649 448.076 148.155 449.627 150.93C451.178 153.704 454.685 154.696 457.459 153.145Z" fill="#D9D9D9"/>
    <path d="M82.3663 362.834C85.1408 361.283 86.1326 357.776 84.5816 355.002C83.0305 352.228 79.5241 351.236 76.7496 352.787C73.9752 354.338 72.9834 357.844 74.5344 360.619C76.0854 363.393 79.5919 364.385 82.3663 362.834Z" fill="#D9D9D9"/>
    <path d="M216.328 287.946C219.102 286.395 220.094 282.888 218.543 280.114C216.992 277.339 213.486 276.347 210.711 277.898C207.937 279.449 206.945 282.956 208.496 285.73C210.047 288.505 213.554 289.497 216.328 287.946Z" fill="#D9D9D9"/>
    <path d="M350.289 213.056C353.064 211.505 354.055 207.999 352.504 205.224C350.953 202.45 347.447 201.458 344.672 203.009C341.898 204.56 340.906 208.066 342.457 210.841C344.008 213.615 347.515 214.607 350.289 213.056Z" fill="#D9D9D9"/>
    <path d="M484.251 138.166C487.026 136.615 488.018 133.109 486.467 130.334C484.916 127.56 481.409 126.568 478.635 128.119C475.86 129.67 474.869 133.177 476.42 135.951C477.971 138.726 481.477 139.717 484.251 138.166Z" fill="#D9D9D9"/>
    <path d="M109.159 347.857C111.933 346.306 112.925 342.799 111.374 340.025C109.823 337.25 106.317 336.259 103.542 337.81C100.768 339.361 99.7759 342.867 101.327 345.641C102.878 348.416 106.384 349.408 109.159 347.857Z" fill="#D9D9D9"/>
    <path d="M243.121 272.967C245.895 271.416 246.887 267.909 245.336 265.135C243.785 262.361 240.278 261.369 237.504 262.92C234.729 264.471 233.738 267.977 235.289 270.752C236.84 273.526 240.346 274.518 243.121 272.967Z" fill="#D9D9D9"/>
    <path d="M377.082 198.077C379.856 196.526 380.848 193.02 379.297 190.245C377.746 187.471 374.24 186.479 371.465 188.03C368.691 189.581 367.699 193.088 369.25 195.862C370.801 198.636 374.308 199.628 377.082 198.077Z" fill="#D9D9D9"/>
    <path d="M511.043 123.188C513.818 121.637 514.81 118.13 513.259 115.356C511.708 112.581 508.201 111.59 505.427 113.141C502.652 114.692 501.66 118.198 503.211 120.972C504.762 123.747 508.269 124.739 511.043 123.188Z" fill="#D9D9D9"/>
    <path d="M135.951 332.878C138.726 331.327 139.717 327.82 138.166 325.046C136.615 322.272 133.109 321.28 130.334 322.831C127.56 324.382 126.568 327.888 128.119 330.663C129.67 333.437 133.177 334.429 135.951 332.878Z" fill="#D9D9D9"/>
    <path d="M269.912 257.988C272.687 256.437 273.679 252.931 272.128 250.156C270.577 247.382 267.07 246.39 264.296 247.941C261.521 249.492 260.529 252.999 262.08 255.773C263.631 258.548 267.138 259.539 269.912 257.988Z" fill="#D9D9D9"/>
    <path d="M403.873 183.1C406.648 181.549 407.639 178.042 406.088 175.268C404.537 172.494 401.031 171.502 398.256 173.053C395.482 174.604 394.49 178.11 396.041 180.885C397.592 183.659 401.099 184.651 403.873 183.1Z" fill="#D9D9D9"/>
    <path d="M162.744 317.9C165.518 316.349 166.51 312.843 164.959 310.068C163.408 307.294 159.902 306.302 157.127 307.853C154.353 309.404 153.361 312.911 154.912 315.685C156.463 318.46 159.969 319.451 162.744 317.9Z" fill="#D9D9D9"/>
    <path d="M296.705 243.012C299.479 241.461 300.471 237.954 298.92 235.18C297.369 232.406 293.863 231.414 291.088 232.965C288.314 234.516 287.322 238.022 288.873 240.797C290.424 243.571 293.93 244.563 296.705 243.012Z" fill="#D9D9D9"/>
    <path d="M430.666 168.122C433.441 166.571 434.432 163.065 432.881 160.291C431.33 157.516 427.824 156.524 425.049 158.075C422.275 159.626 421.283 163.133 422.834 165.907C424.385 168.682 427.892 169.674 430.666 168.122Z" fill="#D9D9D9"/>
    <path d="M370.018 625.769C372.792 624.218 373.784 620.712 372.233 617.938C370.682 615.163 367.176 614.171 364.401 615.722C361.627 617.273 360.635 620.78 362.186 623.554C363.737 626.329 367.243 627.32 370.018 625.769Z" fill="#D9D9D9"/>
    <path d="M503.979 550.88C506.754 549.329 507.745 545.822 506.194 543.048C504.643 540.274 501.137 539.282 498.363 540.833C495.588 542.384 494.596 545.89 496.147 548.665C497.698 551.439 501.205 552.431 503.979 550.88Z" fill="#D9D9D9"/>
    <path d="M262.849 685.68C265.624 684.129 266.615 680.623 265.064 677.848C263.513 675.074 260.007 674.082 257.233 675.633C254.458 677.184 253.466 680.691 255.017 683.465C256.568 686.24 260.075 687.231 262.849 685.68Z" fill="#D9D9D9"/>
    <path d="M396.811 610.792C399.585 609.241 400.577 605.734 399.026 602.96C397.475 600.185 393.969 599.194 391.194 600.745C388.42 602.296 387.428 605.802 388.979 608.577C390.53 611.351 394.036 612.343 396.811 610.792Z" fill="#D9D9D9"/>
    <path d="M289.641 670.702C292.415 669.151 293.407 665.645 291.856 662.87C290.305 660.096 286.799 659.104 284.024 660.655C281.25 662.206 280.258 665.713 281.809 668.487C283.36 671.262 286.866 672.253 289.641 670.702Z" fill="#D9D9D9"/>
    <path d="M423.602 595.813C426.376 594.262 427.368 590.756 425.817 587.981C424.266 585.207 420.76 584.215 417.985 585.766C415.211 587.317 414.219 590.823 415.77 593.598C417.321 596.372 420.828 597.364 423.602 595.813Z" fill="#D9D9D9"/>
    <path d="M316.434 655.725C319.208 654.174 320.2 650.668 318.649 647.893C317.098 645.119 313.591 644.127 310.817 645.678C308.043 647.229 307.051 650.735 308.602 653.51C310.153 656.284 313.659 657.276 316.434 655.725Z" fill="#D9D9D9"/>
    <path d="M450.395 580.836C453.169 579.285 454.161 575.779 452.61 573.004C451.059 570.23 447.553 569.238 444.778 570.789C442.004 572.34 441.012 575.846 442.563 578.621C444.114 581.395 447.62 582.387 450.395 580.836Z" fill="#D9D9D9"/>
    <path d="M343.225 640.747C345.999 639.196 346.991 635.69 345.44 632.915C343.889 630.141 340.383 629.149 337.608 630.7C334.834 632.251 333.842 635.757 335.393 638.532C336.944 641.306 340.451 642.298 343.225 640.747Z" fill="#D9D9D9"/>
    <path d="M477.187 565.859C479.962 564.308 480.954 560.801 479.403 558.027C477.852 555.253 474.345 554.261 471.571 555.812C468.796 557.363 467.804 560.869 469.355 563.644C470.906 566.418 474.413 567.41 477.187 565.859Z" fill="#D9D9D9"/>
    <path d="M145.441 538.566C148.216 537.015 149.208 533.508 147.657 530.734C146.105 527.959 142.599 526.967 139.825 528.518C137.05 530.069 136.058 533.576 137.609 536.35C139.16 539.125 142.667 540.117 145.441 538.566Z" fill="#D9D9D9"/>
    <path d="M279.403 463.675C282.177 462.124 283.169 458.617 281.618 455.843C280.067 453.068 276.56 452.077 273.786 453.628C271.011 455.179 270.02 458.685 271.571 461.459C273.122 464.234 276.628 465.226 279.403 463.675Z" fill="#D9D9D9"/>
    <path d="M413.364 388.786C416.138 387.235 417.13 383.729 415.579 380.954C414.028 378.18 410.522 377.188 407.747 378.739C404.973 380.29 403.981 383.797 405.532 386.571C407.083 389.346 410.589 390.337 413.364 388.786Z" fill="#D9D9D9"/>
    <path d="M172.233 523.586C175.007 522.035 175.999 518.529 174.448 515.754C172.897 512.98 169.391 511.988 166.616 513.539C163.842 515.09 162.85 518.596 164.401 521.371C165.952 524.145 169.458 525.137 172.233 523.586Z" fill="#D9D9D9"/>
    <path d="M306.195 448.698C308.969 447.147 309.961 443.64 308.41 440.866C306.859 438.091 303.353 437.099 300.578 438.65C297.804 440.201 296.812 443.708 298.363 446.482C299.914 449.257 303.421 450.249 306.195 448.698Z" fill="#D9D9D9"/>
    <path d="M440.156 373.808C442.931 372.257 443.923 368.75 442.372 365.976C440.821 363.201 437.314 362.209 434.54 363.761C431.765 365.312 430.773 368.818 432.324 371.592C433.875 374.367 437.382 375.359 440.156 373.808Z" fill="#D9D9D9"/>
    <path d="M199.025 508.608C201.8 507.057 202.792 503.551 201.241 500.776C199.69 498.002 196.183 497.01 193.409 498.561C190.634 500.112 189.642 503.619 191.193 506.393C192.744 509.168 196.251 510.159 199.025 508.608Z" fill="#D9D9D9"/>
    <path d="M332.987 433.72C335.761 432.169 336.753 428.663 335.202 425.888C333.651 423.114 330.145 422.122 327.37 423.673C324.596 425.224 323.604 428.73 325.155 431.505C326.706 434.279 330.212 435.271 332.987 433.72Z" fill="#D9D9D9"/>
    <path d="M466.949 358.83C469.724 357.279 470.715 353.773 469.164 350.999C467.613 348.224 464.107 347.232 461.333 348.783C458.558 350.334 457.566 353.841 459.117 356.615C460.668 359.39 464.175 360.381 466.949 358.83Z" fill="#D9D9D9"/>
    <path d="M225.817 493.631C228.591 492.08 229.583 488.574 228.032 485.799C226.481 483.025 222.975 482.033 220.2 483.584C217.426 485.135 216.434 488.641 217.985 491.416C219.536 494.19 223.043 495.182 225.817 493.631Z" fill="#D9D9D9"/>
    <path d="M359.78 418.741C362.554 417.19 363.546 413.684 361.995 410.909C360.444 408.135 356.937 407.143 354.163 408.694C351.389 410.245 350.397 413.751 351.948 416.526C353.499 419.3 357.005 420.292 359.78 418.741Z" fill="#D9D9D9"/>
    <path d="M493.74 343.853C496.515 342.302 497.507 338.795 495.956 336.021C494.405 333.246 490.898 332.255 488.124 333.806C485.349 335.357 484.357 338.863 485.908 341.638C487.459 344.412 490.966 345.404 493.74 343.853Z" fill="#D9D9D9"/>
    <path d="M252.61 478.653C255.384 477.102 256.376 473.596 254.825 470.822C253.274 468.047 249.767 467.055 246.993 468.606C244.218 470.157 243.227 473.664 244.778 476.438C246.329 479.213 249.835 480.204 252.61 478.653Z" fill="#D9D9D9"/>
    <path d="M386.571 403.764C389.345 402.213 390.337 398.707 388.786 395.932C387.235 393.158 383.729 392.166 380.954 393.717C378.18 395.268 377.188 398.774 378.739 401.549C380.29 404.323 383.796 405.315 386.571 403.764Z" fill="#D9D9D9"/>
    <path d="M520.533 328.875C523.308 327.324 524.3 323.818 522.749 321.043C521.198 318.269 517.691 317.277 514.917 318.828C512.142 320.379 511.15 323.885 512.701 326.66C514.252 329.434 517.759 330.426 520.533 328.875Z" fill="#D9D9D9"/>
    <path d="M33.1074 337.624C35.8819 336.073 36.8736 332.566 35.3226 329.792C33.7716 327.017 30.2652 326.026 27.4907 327.577C24.7163 329.128 23.7245 332.634 25.2755 335.409C26.8265 338.183 30.333 339.175 33.1074 337.624Z" fill="#D9D9D9"/>
    <path d="M167.069 262.734C169.844 261.183 170.835 257.677 169.284 254.902C167.733 252.128 164.227 251.136 161.453 252.687C158.678 254.238 157.686 257.744 159.237 260.519C160.788 263.293 164.295 264.285 167.069 262.734Z" fill="#D9D9D9"/>
    <path d="M301.03 187.845C303.805 186.294 304.796 182.788 303.245 180.014C301.694 177.239 298.188 176.247 295.413 177.798C292.639 179.349 291.647 182.856 293.198 185.63C294.749 188.405 298.256 189.396 301.03 187.845Z" fill="#D9D9D9"/>
    <path d="M434.992 112.955C437.766 111.404 438.758 107.898 437.207 105.123C435.656 102.349 432.149 101.357 429.375 102.908C426.6 104.459 425.609 107.966 427.16 110.74C428.711 113.515 432.217 114.506 434.992 112.955Z" fill="#D9D9D9"/>
    <path d="M59.8996 322.645C62.6741 321.094 63.6659 317.588 62.1149 314.813C60.5639 312.039 57.0574 311.047 54.283 312.598C51.5085 314.149 50.5167 317.655 52.0677 320.43C53.6187 323.204 57.1252 324.196 59.8996 322.645Z" fill="#D9D9D9"/>
    <path d="M193.861 247.755C196.635 246.204 197.627 242.698 196.076 239.923C194.525 237.149 191.018 236.157 188.244 237.708C185.47 239.259 184.478 242.766 186.029 245.54C187.58 248.315 191.086 249.306 193.861 247.755Z" fill="#D9D9D9"/>
    <path d="M327.823 172.867C330.598 171.316 331.589 167.809 330.038 165.035C328.487 162.261 324.981 161.269 322.206 162.82C319.432 164.371 318.44 167.877 319.991 170.652C321.542 173.426 325.049 174.418 327.823 172.867Z" fill="#D9D9D9"/>
    <path d="M461.784 97.9781C464.559 96.4271 465.551 92.9206 464 90.1462C462.449 87.3717 458.942 86.38 456.168 87.931C453.393 89.482 452.402 92.9884 453.953 95.7629C455.504 98.5373 459.01 99.5291 461.784 97.9781Z" fill="#D9D9D9"/>
    <path d="M86.692 307.668C89.4665 306.117 90.4583 302.61 88.9073 299.836C87.3562 297.061 83.8498 296.069 81.0753 297.62C78.3009 299.171 77.3091 302.678 78.8601 305.452C80.4111 308.227 83.9176 309.219 86.692 307.668Z" fill="#D9D9D9"/>
    <path d="M220.653 232.778C223.428 231.227 224.42 227.72 222.869 224.946C221.318 222.172 217.811 221.18 215.037 222.731C212.262 224.282 211.27 227.788 212.821 230.563C214.372 233.337 217.879 234.329 220.653 232.778Z" fill="#D9D9D9"/>
    <path d="M354.614 157.888C357.389 156.337 358.381 152.831 356.83 150.056C355.279 147.282 351.772 146.29 348.998 147.841C346.223 149.392 345.231 152.899 346.782 155.673C348.333 158.447 351.84 159.439 354.614 157.888Z" fill="#D9D9D9"/>
    <path d="M488.577 82.9998C491.351 81.4488 492.343 77.9423 490.792 75.1679C489.241 72.3934 485.735 71.4016 482.96 72.9526C480.186 74.5037 479.194 78.0101 480.745 80.7846C482.296 83.559 485.802 84.5508 488.577 82.9998Z" fill="#D9D9D9"/>
    <path d="M113.484 292.69C116.258 291.139 117.25 287.633 115.699 284.858C114.148 282.084 110.642 281.092 107.867 282.643C105.093 284.194 104.101 287.701 105.652 290.475C107.203 293.249 110.709 294.241 113.484 292.69Z" fill="#D9D9D9"/>
    <path d="M247.446 217.801C250.22 216.25 251.212 212.743 249.661 209.969C248.11 207.194 244.604 206.202 241.829 207.753C239.055 209.304 238.063 212.811 239.614 215.585C241.165 218.36 244.672 219.352 247.446 217.801Z" fill="#D9D9D9"/>
    <path d="M381.407 142.912C384.182 141.361 385.173 137.854 383.622 135.08C382.071 132.306 378.565 131.314 375.791 132.865C373.016 134.416 372.024 137.922 373.575 140.697C375.126 143.471 378.633 144.463 381.407 142.912Z" fill="#D9D9D9"/>
    <path d="M515.369 68.022C518.143 66.471 519.135 62.9646 517.584 60.1901C516.033 57.4157 512.526 56.4239 509.752 57.9749C506.978 59.5259 505.986 63.0324 507.537 65.8068C509.088 68.5813 512.594 69.5731 515.369 68.022Z" fill="#D9D9D9"/>
    <path d="M140.276 277.712C143.051 276.161 144.043 272.654 142.492 269.88C140.941 267.105 137.434 266.113 134.66 267.664C131.885 269.215 130.893 272.722 132.444 275.496C133.995 278.271 137.502 279.263 140.276 277.712Z" fill="#D9D9D9"/>
    <path d="M274.238 202.822C277.012 201.271 278.004 197.764 276.453 194.99C274.902 192.215 271.395 191.224 268.621 192.775C265.847 194.326 264.855 197.832 266.406 200.607C267.957 203.381 271.463 204.373 274.238 202.822Z" fill="#D9D9D9"/>
    <path d="M408.2 127.933C410.975 126.382 411.966 122.876 410.415 120.101C408.864 117.327 405.358 116.335 402.583 117.886C399.809 119.437 398.817 122.944 400.368 125.718C401.919 128.492 405.426 129.484 408.2 127.933Z" fill="#D9D9D9"/>
    <path d="M213.589 660.471C216.364 658.92 217.355 655.413 215.804 652.639C214.253 649.864 210.747 648.872 207.973 650.423C205.198 651.974 204.206 655.481 205.757 658.255C207.308 661.03 210.815 662.022 213.589 660.471Z" fill="#D9D9D9"/>
    <path d="M347.552 585.579C350.326 584.028 351.318 580.522 349.767 577.747C348.216 574.973 344.71 573.981 341.935 575.532C339.161 577.083 338.169 580.589 339.72 583.364C341.271 586.138 344.778 587.13 347.552 585.579Z" fill="#D9D9D9"/>
    <path d="M481.513 510.692C484.287 509.141 485.279 505.635 483.728 502.861C482.177 500.086 478.67 499.094 475.896 500.645C473.122 502.196 472.13 505.703 473.681 508.477C475.232 511.252 478.738 512.243 481.513 510.692Z" fill="#D9D9D9"/>
    <path d="M240.382 645.492C243.156 643.941 244.148 640.435 242.597 637.66C241.046 634.886 237.54 633.894 234.765 635.445C231.991 636.996 230.999 640.502 232.55 643.277C234.101 646.051 237.608 647.043 240.382 645.492Z" fill="#D9D9D9"/>
    <path d="M374.343 570.602C377.118 569.051 378.109 565.545 376.558 562.77C375.007 559.996 371.501 559.004 368.726 560.555C365.952 562.106 364.96 565.613 366.511 568.387C368.062 571.162 371.569 572.153 374.343 570.602Z" fill="#D9D9D9"/>
    <path d="M508.305 495.713C511.079 494.162 512.071 490.655 510.52 487.881C508.969 485.106 505.462 484.114 502.688 485.665C499.913 487.216 498.922 490.723 500.473 493.497C502.024 496.272 505.53 497.264 508.305 495.713Z" fill="#D9D9D9"/>
    <path d="M267.175 630.513C269.949 628.962 270.941 625.456 269.39 622.681C267.839 619.907 264.333 618.915 261.558 620.466C258.784 622.017 257.792 625.524 259.343 628.298C260.894 631.072 264.4 632.064 267.175 630.513Z" fill="#D9D9D9"/>
    <path d="M401.136 555.626C403.911 554.075 404.902 550.569 403.351 547.794C401.8 545.02 398.294 544.028 395.519 545.579C392.745 547.13 391.753 550.636 393.304 553.411C394.855 556.185 398.362 557.177 401.136 555.626Z" fill="#D9D9D9"/>
    <path d="M293.966 615.537C296.741 613.986 297.732 610.479 296.181 607.705C294.63 604.93 291.124 603.939 288.349 605.49C285.575 607.041 284.583 610.547 286.134 613.321C287.685 616.096 291.192 617.088 293.966 615.537Z" fill="#D9D9D9"/>
    <path d="M427.927 540.646C430.702 539.095 431.694 535.589 430.143 532.814C428.592 530.04 425.085 529.048 422.311 530.599C419.536 532.15 418.544 535.656 420.095 538.431C421.646 541.205 425.153 542.197 427.927 540.646Z" fill="#D9D9D9"/>
    <path d="M320.759 600.559C323.533 599.008 324.525 595.501 322.974 592.727C321.423 589.953 317.917 588.961 315.142 590.512C312.368 592.063 311.376 595.569 312.927 598.344C314.478 601.118 317.985 602.11 320.759 600.559Z" fill="#D9D9D9"/>
    <path d="M454.72 525.668C457.495 524.117 458.487 520.611 456.936 517.836C455.385 515.062 451.878 514.07 449.104 515.621C446.329 517.172 445.337 520.679 446.888 523.453C448.439 526.227 451.946 527.219 454.72 525.668Z" fill="#D9D9D9"/>
    <path d="M122.974 498.376C125.748 496.825 126.74 493.319 125.189 490.544C123.638 487.77 120.132 486.778 117.357 488.329C114.583 489.88 113.591 493.387 115.142 496.161C116.693 498.936 120.199 499.927 122.974 498.376Z" fill="#D9D9D9"/>
    <path d="M256.935 423.487C259.71 421.936 260.701 418.43 259.15 415.655C257.599 412.881 254.093 411.889 251.318 413.44C248.544 414.991 247.552 418.497 249.103 421.272C250.654 424.046 254.161 425.038 256.935 423.487Z" fill="#D9D9D9"/>
    <path d="M390.897 348.599C393.672 347.048 394.664 343.541 393.113 340.767C391.562 337.992 388.055 337.001 385.281 338.552C382.506 340.103 381.514 343.609 383.065 346.383C384.616 349.158 388.123 350.15 390.897 348.599Z" fill="#D9D9D9"/>
    <path d="M524.859 273.71C527.633 272.159 528.625 268.652 527.074 265.878C525.523 263.103 522.016 262.112 519.242 263.663C516.467 265.214 515.476 268.72 517.027 271.495C518.578 274.269 522.084 275.261 524.859 273.71Z" fill="#D9D9D9"/>
    <path d="M149.766 483.398C152.541 481.847 153.533 478.34 151.982 475.566C150.431 472.791 146.924 471.8 144.15 473.351C141.375 474.902 140.384 478.408 141.935 481.183C143.486 483.957 146.992 484.949 149.766 483.398Z" fill="#D9D9D9"/>
    <path d="M283.728 408.509C286.502 406.958 287.494 403.452 285.943 400.677C284.392 397.903 280.886 396.911 278.111 398.462C275.337 400.013 274.345 403.52 275.896 406.294C277.447 409.069 280.953 410.06 283.728 408.509Z" fill="#D9D9D9"/>
    <path d="M417.689 333.621C420.464 332.07 421.455 328.564 419.904 325.789C418.353 323.015 414.847 322.023 412.073 323.574C409.298 325.125 408.306 328.631 409.857 331.406C411.408 334.18 414.915 335.172 417.689 333.621Z" fill="#D9D9D9"/>
    <path d="M176.559 468.421C179.334 466.87 180.325 463.363 178.774 460.589C177.223 457.814 173.717 456.823 170.943 458.374C168.168 459.925 167.176 463.431 168.727 466.205C170.278 468.98 173.785 469.972 176.559 468.421Z" fill="#D9D9D9"/>
    <path d="M310.52 393.532C313.295 391.981 314.286 388.475 312.735 385.7C311.184 382.926 307.678 381.934 304.903 383.485C302.129 385.036 301.137 388.543 302.688 391.317C304.239 394.091 307.746 395.083 310.52 393.532Z" fill="#D9D9D9"/>
    <path d="M444.482 318.643C447.256 317.092 448.248 313.586 446.697 310.811C445.146 308.037 441.639 307.045 438.865 308.596C436.09 310.147 435.099 313.654 436.65 316.428C438.201 319.203 441.707 320.194 444.482 318.643Z" fill="#D9D9D9"/>
    <path d="M203.351 453.443C206.125 451.892 207.117 448.385 205.566 445.611C204.015 442.836 200.509 441.845 197.734 443.396C194.96 444.947 193.968 448.453 195.519 451.228C197.07 454.002 200.576 454.994 203.351 453.443Z" fill="#D9D9D9"/>
    <path d="M337.312 378.555C340.086 377.004 341.078 373.497 339.527 370.723C337.976 367.948 334.47 366.956 331.695 368.507C328.921 370.058 327.929 373.565 329.48 376.339C331.031 379.114 334.538 380.106 337.312 378.555Z" fill="#D9D9D9"/>
    <path d="M471.275 303.665C474.049 302.114 475.041 298.608 473.49 295.833C471.939 293.059 468.432 292.067 465.658 293.618C462.883 295.169 461.892 298.675 463.443 301.45C464.994 304.224 468.5 305.216 471.275 303.665Z" fill="#D9D9D9"/>
    <path d="M230.143 438.466C232.918 436.915 233.91 433.408 232.359 430.634C230.808 427.859 227.301 426.868 224.527 428.419C221.752 429.97 220.761 433.476 222.312 436.25C223.863 439.025 227.369 440.017 230.143 438.466Z" fill="#D9D9D9"/>
    <path d="M364.105 363.576C366.879 362.025 367.871 358.518 366.32 355.744C364.769 352.969 361.263 351.978 358.488 353.529C355.714 355.08 354.722 358.586 356.273 361.361C357.824 364.135 361.331 365.127 364.105 363.576Z" fill="#D9D9D9"/>
    <path d="M498.067 288.687C500.842 287.136 501.834 283.63 500.283 280.855C498.732 278.081 495.225 277.089 492.451 278.64C489.676 280.191 488.684 283.698 490.235 286.472C491.786 289.247 495.293 290.238 498.067 288.687Z" fill="#D9D9D9"/>
    <path d="M78.0407 418.001C80.8151 416.45 81.8069 412.943 80.2559 410.169C78.7049 407.394 75.1984 406.402 72.424 407.953C69.6495 409.504 68.6577 413.011 70.2087 415.785C71.7597 418.56 75.2662 419.552 78.0407 418.001Z" fill="#D9D9D9"/>
    <path d="M212.003 343.11C214.777 341.559 215.769 338.052 214.218 335.278C212.667 332.504 209.16 331.512 206.386 333.063C203.612 334.614 202.62 338.12 204.171 340.895C205.722 343.669 209.228 344.661 212.003 343.11Z" fill="#D9D9D9"/>
    <path d="M345.964 268.221C348.738 266.67 349.73 263.164 348.179 260.39C346.628 257.615 343.122 256.623 340.347 258.174C337.573 259.725 336.581 263.232 338.132 266.006C339.683 268.781 343.189 269.772 345.964 268.221Z" fill="#D9D9D9"/>
    <path d="M479.925 193.333C482.7 191.782 483.691 188.275 482.14 185.501C480.589 182.726 477.083 181.735 474.308 183.286C471.534 184.837 470.542 188.343 472.093 191.118C473.644 193.892 477.151 194.884 479.925 193.333Z" fill="#D9D9D9"/>
    <path d="M104.833 403.022C107.607 401.471 108.599 397.965 107.048 395.19C105.497 392.416 101.991 391.424 99.2163 392.975C96.4419 394.526 95.4501 398.033 97.0011 400.807C98.5521 403.581 102.059 404.573 104.833 403.022Z" fill="#D9D9D9"/>
    <path d="M238.794 328.133C241.569 326.582 242.561 323.076 241.01 320.301C239.459 317.527 235.952 316.535 233.178 318.086C230.403 319.637 229.411 323.144 230.962 325.918C232.513 328.692 236.02 329.684 238.794 328.133Z" fill="#D9D9D9"/>
    <path d="M372.757 253.244C375.531 251.693 376.523 248.186 374.972 245.412C373.421 242.637 369.914 241.646 367.14 243.197C364.366 244.748 363.374 248.254 364.925 251.029C366.476 253.803 369.982 254.795 372.757 253.244Z" fill="#D9D9D9"/>
    <path d="M506.718 178.355C509.492 176.804 510.484 173.298 508.933 170.523C507.382 167.749 503.876 166.757 501.101 168.308C498.327 169.859 497.335 173.366 498.886 176.14C500.437 178.915 503.944 179.906 506.718 178.355Z" fill="#D9D9D9"/>
    <path d="M131.626 388.044C134.4 386.493 135.392 382.987 133.841 380.213C132.29 377.438 128.783 376.446 126.009 377.997C123.235 379.548 122.243 383.055 123.794 385.829C125.345 388.604 128.851 389.595 131.626 388.044Z" fill="#D9D9D9"/>
    <path d="M265.587 313.155C268.361 311.604 269.353 308.098 267.802 305.323C266.251 302.549 262.745 301.557 259.97 303.108C257.196 304.659 256.204 308.165 257.755 310.94C259.306 313.714 262.812 314.706 265.587 313.155Z" fill="#D9D9D9"/>
    <path d="M399.548 238.265C402.322 236.714 403.314 233.208 401.763 230.433C400.212 227.659 396.706 226.667 393.931 228.218C391.157 229.769 390.165 233.276 391.716 236.05C393.267 238.825 396.774 239.816 399.548 238.265Z" fill="#D9D9D9"/>
    <path d="M158.417 373.066C161.192 371.515 162.183 368.008 160.632 365.234C159.081 362.459 155.575 361.468 152.801 363.019C150.026 364.57 149.034 368.076 150.585 370.851C152.136 373.625 155.643 374.617 158.417 373.066Z" fill="#D9D9D9"/>
    <path d="M292.38 298.178C295.154 296.626 296.146 293.12 294.595 290.346C293.044 287.571 289.537 286.579 286.763 288.13C283.988 289.681 282.997 293.188 284.548 295.962C286.099 298.737 289.605 299.729 292.38 298.178Z" fill="#D9D9D9"/>
    <path d="M426.341 223.288C429.115 221.737 430.107 218.23 428.556 215.456C427.005 212.682 423.499 211.69 420.724 213.241C417.95 214.792 416.958 218.298 418.509 221.073C420.06 223.847 423.566 224.839 426.341 223.288Z" fill="#D9D9D9"/>
    <path d="M185.21 358.089C187.985 356.538 188.976 353.031 187.425 350.257C185.874 347.482 182.368 346.49 179.593 348.042C176.819 349.593 175.827 353.099 177.378 355.873C178.929 358.648 182.436 359.64 185.21 358.089Z" fill="#D9D9D9"/>
    <path d="M319.171 283.2C321.946 281.649 322.938 278.142 321.387 275.368C319.836 272.594 316.329 271.602 313.555 273.153C310.78 274.704 309.788 278.21 311.339 280.985C312.89 283.759 316.397 284.751 319.171 283.2Z" fill="#D9D9D9"/>
    <path d="M453.134 208.31C455.908 206.759 456.9 203.253 455.349 200.478C453.798 197.704 450.291 196.712 447.517 198.263C444.743 199.814 443.751 203.321 445.302 206.095C446.853 208.87 450.359 209.861 453.134 208.31Z" fill="#D9D9D9"/>
    <path d="M392.485 665.959C395.259 664.408 396.251 660.901 394.7 658.127C393.149 655.353 389.643 654.361 386.868 655.912C384.094 657.463 383.102 660.969 384.653 663.744C386.204 666.518 389.71 667.51 392.485 665.959Z" fill="#D9D9D9"/>
    <path d="M526.446 591.071C529.221 589.52 530.212 586.013 528.661 583.239C527.11 580.464 523.604 579.472 520.829 581.023C518.055 582.574 517.063 586.081 518.614 588.855C520.165 591.63 523.672 592.622 526.446 591.071Z" fill="#D9D9D9"/>
    <path d="M419.278 650.98C422.052 649.429 423.044 645.922 421.493 643.148C419.942 640.374 416.435 639.382 413.661 640.933C410.887 642.484 409.895 645.99 411.446 648.765C412.997 651.539 416.503 652.531 419.278 650.98Z" fill="#D9D9D9"/>
    <path d="M446.07 636.002C448.844 634.451 449.836 630.945 448.285 628.171C446.734 625.396 443.227 624.404 440.453 625.955C437.679 627.506 436.687 631.013 438.238 633.787C439.789 636.562 443.295 637.553 446.07 636.002Z" fill="#D9D9D9"/>
    <path d="M338.901 695.914C341.675 694.363 342.667 690.857 341.116 688.082C339.565 685.308 336.058 684.316 333.284 685.867C330.51 687.418 329.518 690.925 331.069 693.699C332.62 696.473 336.126 697.465 338.901 695.914Z" fill="#D9D9D9"/>
    <path d="M472.862 621.025C475.637 619.474 476.628 615.967 475.077 613.193C473.526 610.418 470.02 609.427 467.245 610.978C464.471 612.529 463.479 616.035 465.03 618.809C466.581 621.584 470.088 622.576 472.862 621.025Z" fill="#D9D9D9"/>
    <path d="M365.693 680.937C368.467 679.386 369.459 675.879 367.908 673.105C366.357 670.33 362.85 669.338 360.076 670.889C357.302 672.44 356.31 675.947 357.861 678.721C359.412 681.496 362.918 682.488 365.693 680.937Z" fill="#D9D9D9"/>
    <path d="M499.655 606.047C502.429 604.496 503.421 600.99 501.87 598.215C500.319 595.441 496.813 594.449 494.038 596C491.264 597.551 490.272 601.057 491.823 603.832C493.374 606.606 496.88 607.598 499.655 606.047Z" fill="#D9D9D9"/>
    <path d="M167.907 578.755C170.682 577.204 171.674 573.697 170.123 570.923C168.572 568.148 165.065 567.156 162.291 568.707C159.516 570.258 158.525 573.765 160.076 576.539C161.627 579.314 165.133 580.306 167.907 578.755Z" fill="#D9D9D9"/>
    <path d="M301.87 503.866C304.644 502.315 305.636 498.809 304.085 496.034C302.534 493.26 299.027 492.268 296.253 493.819C293.478 495.37 292.487 498.877 294.038 501.651C295.589 504.426 299.095 505.417 301.87 503.866Z" fill="#D9D9D9"/>
    <path d="M435.831 428.976C438.605 427.425 439.597 423.919 438.046 421.144C436.495 418.37 432.989 417.378 430.214 418.929C427.44 420.48 426.448 423.987 427.999 426.761C429.55 429.535 433.057 430.527 435.831 428.976Z" fill="#D9D9D9"/>
    <path d="M194.7 563.777C197.475 562.226 198.466 558.719 196.915 555.945C195.364 553.171 191.858 552.179 189.084 553.73C186.309 555.281 185.317 558.787 186.868 561.562C188.419 564.336 191.926 565.328 194.7 563.777Z" fill="#D9D9D9"/>
    <path d="M328.661 488.887C331.436 487.336 332.428 483.83 330.877 481.056C329.326 478.281 325.819 477.289 323.045 478.84C320.27 480.391 319.279 483.898 320.83 486.672C322.381 489.447 325.887 490.438 328.661 488.887Z" fill="#D9D9D9"/>
    <path d="M462.624 413.998C465.398 412.447 466.39 408.941 464.839 406.166C463.288 403.392 459.782 402.4 457.007 403.951C454.233 405.502 453.241 409.008 454.792 411.783C456.343 414.557 459.849 415.549 462.624 413.998Z" fill="#D9D9D9"/>
    <path d="M221.492 548.8C224.266 547.249 225.258 543.742 223.707 540.968C222.156 538.193 218.649 537.201 215.875 538.752C213.101 540.303 212.109 543.81 213.66 546.584C215.211 549.359 218.717 550.351 221.492 548.8Z" fill="#D9D9D9"/>
    <path d="M355.454 473.91C358.228 472.359 359.22 468.852 357.669 466.078C356.118 463.303 352.612 462.312 349.837 463.863C347.063 465.414 346.071 468.92 347.622 471.695C349.173 474.469 352.679 475.461 355.454 473.91Z" fill="#D9D9D9"/>
    <path d="M489.415 399.02C492.19 397.469 493.181 393.963 491.63 391.188C490.079 388.414 486.573 387.422 483.798 388.973C481.024 390.524 480.032 394.031 481.583 396.805C483.134 399.579 486.641 400.571 489.415 399.02Z" fill="#D9D9D9"/>
    <path d="M248.284 533.82C251.059 532.269 252.051 528.762 250.5 525.988C248.949 523.214 245.442 522.222 242.668 523.773C239.893 525.324 238.901 528.83 240.452 531.605C242.003 534.379 245.51 535.371 248.284 533.82Z" fill="#D9D9D9"/>
    <path d="M382.247 458.932C385.021 457.381 386.013 453.874 384.462 451.1C382.911 448.325 379.404 447.334 376.63 448.885C373.856 450.436 372.864 453.942 374.415 456.716C375.966 459.491 379.472 460.483 382.247 458.932Z" fill="#D9D9D9"/>
    <path d="M516.208 384.043C518.983 382.492 519.974 378.985 518.423 376.211C516.872 373.436 513.366 372.445 510.591 373.996C507.817 375.547 506.825 379.053 508.376 381.828C509.927 384.602 513.434 385.594 516.208 384.043Z" fill="#D9D9D9"/>
    <path d="M275.077 518.842C277.851 517.291 278.843 513.785 277.292 511.011C275.741 508.236 272.235 507.244 269.46 508.795C266.686 510.346 265.694 513.853 267.245 516.627C268.796 519.402 272.303 520.393 275.077 518.842Z" fill="#D9D9D9"/>
    <path d="M409.038 443.954C411.813 442.403 412.805 438.896 411.254 436.122C409.703 433.348 406.196 432.356 403.422 433.907C400.647 435.458 399.656 438.964 401.207 441.739C402.758 444.513 406.264 445.505 409.038 443.954Z" fill="#D9D9D9"/>
    <path d="M21.874 317.529C24.6485 315.978 25.6403 312.471 24.0893 309.697C22.5382 306.922 19.0318 305.931 16.2573 307.482C13.4829 309.033 12.4911 312.539 14.0421 315.314C15.5931 318.088 19.0996 319.08 21.874 317.529Z" fill="#D9D9D9"/>
    <path d="M155.835 242.64C158.61 241.089 159.602 237.582 158.051 234.808C156.5 232.034 152.993 231.042 150.219 232.593C147.444 234.144 146.452 237.65 148.003 240.425C149.554 243.199 153.061 244.191 155.835 242.64Z" fill="#D9D9D9"/>
    <path d="M289.797 167.751C292.571 166.2 293.563 162.693 292.012 159.919C290.461 157.144 286.954 156.152 284.18 157.703C281.405 159.254 280.414 162.761 281.965 165.535C283.516 168.31 287.022 169.302 289.797 167.751Z" fill="#D9D9D9"/>
    <path d="M423.759 92.8617C426.533 91.3107 427.525 87.8042 425.974 85.0298C424.423 82.2554 420.917 81.2636 418.142 82.8146C415.368 84.3656 414.376 87.8721 415.927 90.6465C417.478 93.4209 420.985 94.4127 423.759 92.8617Z" fill="#D9D9D9"/>
    <path d="M48.6664 302.551C51.4408 301 52.4326 297.494 50.8816 294.719C49.3306 291.945 45.8241 290.953 43.0497 292.504C40.2753 294.055 39.2835 297.561 40.8345 300.336C42.3855 303.11 45.892 304.102 48.6664 302.551Z" fill="#D9D9D9"/>
    <path d="M182.628 227.663C185.403 226.112 186.395 222.605 184.844 219.831C183.293 217.056 179.786 216.064 177.012 217.615C174.237 219.166 173.245 222.673 174.796 225.447C176.347 228.222 179.854 229.214 182.628 227.663Z" fill="#D9D9D9"/>
    <path d="M316.59 152.773C319.364 151.222 320.356 147.715 318.805 144.941C317.254 142.167 313.747 141.175 310.973 142.726C308.198 144.277 307.207 147.783 308.758 150.558C310.309 153.332 313.815 154.324 316.59 152.773Z" fill="#D9D9D9"/>
    <path d="M450.552 77.8833C453.326 76.3323 454.318 72.8258 452.767 70.0514C451.216 67.277 447.71 66.2852 444.935 67.8362C442.161 69.3872 441.169 72.8937 442.72 75.6681C444.271 78.4425 447.777 79.4343 450.552 77.8833Z" fill="#D9D9D9"/>
    <path d="M75.4586 287.574C78.2331 286.023 79.2248 282.516 77.6738 279.742C76.1228 276.967 72.6164 275.976 69.8419 277.527C67.0675 279.078 66.0757 282.584 67.6267 285.359C69.1777 288.133 72.6842 289.125 75.4586 287.574Z" fill="#D9D9D9"/>
    <path d="M209.42 212.684C212.194 211.133 213.186 207.627 211.635 204.852C210.084 202.078 206.578 201.086 203.803 202.637C201.029 204.188 200.037 207.694 201.588 210.469C203.139 213.243 206.645 214.235 209.42 212.684Z" fill="#D9D9D9"/>
    <path d="M343.382 137.795C346.156 136.244 347.148 132.738 345.597 129.964C344.046 127.189 340.54 126.197 337.765 127.748C334.991 129.299 333.999 132.806 335.55 135.58C337.101 138.355 340.608 139.346 343.382 137.795Z" fill="#D9D9D9"/>
    <path d="M477.343 62.9061C480.118 61.3551 481.109 57.8487 479.558 55.0742C478.007 52.2998 474.501 51.308 471.726 52.859C468.952 54.41 467.96 57.9165 469.511 60.6909C471.062 63.4654 474.569 64.4571 477.343 62.9061Z" fill="#D9D9D9"/>
    <path d="M102.251 272.596C105.025 271.045 106.017 267.539 104.466 264.764C102.915 261.99 99.4085 260.998 96.634 262.549C93.8596 264.1 92.8678 267.606 94.4188 270.381C95.9698 273.155 99.4763 274.147 102.251 272.596Z" fill="#D9D9D9"/>
    <path d="M236.213 197.706C238.987 196.155 239.979 192.649 238.428 189.875C236.877 187.1 233.37 186.108 230.596 187.659C227.821 189.21 226.83 192.717 228.381 195.491C229.932 198.266 233.438 199.257 236.213 197.706Z" fill="#D9D9D9"/>
    <path d="M370.174 122.817C372.948 121.266 373.94 117.759 372.389 114.985C370.838 112.21 367.331 111.219 364.557 112.77C361.783 114.321 360.791 117.827 362.342 120.602C363.893 123.376 367.399 124.368 370.174 122.817Z" fill="#D9D9D9"/>
    <path d="M504.136 47.9279C506.911 46.3769 507.902 42.8705 506.351 40.096C504.8 37.3216 501.294 36.3298 498.519 37.8808C495.745 39.4318 494.753 42.9383 496.304 45.7127C497.855 48.4872 501.362 49.4789 504.136 47.9279Z" fill="#D9D9D9"/>
    <path d="M129.043 257.618C131.817 256.067 132.809 252.56 131.258 249.786C129.707 247.011 126.2 246.019 123.426 247.57C120.652 249.122 119.66 252.628 121.211 255.402C122.762 258.177 126.268 259.169 129.043 257.618Z" fill="#D9D9D9"/>
    <path d="M263.005 182.729C265.78 181.178 266.771 177.671 265.22 174.897C263.669 172.123 260.163 171.131 257.388 172.682C254.614 174.233 253.622 177.739 255.173 180.514C256.724 183.288 260.231 184.28 263.005 182.729Z" fill="#D9D9D9"/>
    <path d="M396.966 107.84C399.741 106.289 400.732 102.783 399.181 100.008C397.63 97.2337 394.124 96.2419 391.349 97.7929C388.575 99.3439 387.583 102.85 389.134 105.625C390.685 108.399 394.192 109.391 396.966 107.84Z" fill="#D9D9D9"/>
    <path d="M202.356 640.375C205.13 638.824 206.122 635.318 204.571 632.543C203.02 629.769 199.513 628.777 196.739 630.328C193.965 631.879 192.973 635.385 194.524 638.16C196.075 640.934 199.581 641.926 202.356 640.375Z" fill="#D9D9D9"/>
    <path d="M336.318 565.486C339.092 563.935 340.084 560.428 338.533 557.654C336.982 554.879 333.476 553.887 330.701 555.438C327.927 556.989 326.935 560.496 328.486 563.27C330.037 566.045 333.543 567.037 336.318 565.486Z" fill="#D9D9D9"/>
    <path d="M470.279 490.598C473.053 489.047 474.045 485.541 472.494 482.766C470.943 479.992 467.437 479 464.662 480.551C461.888 482.102 460.896 485.608 462.447 488.383C463.998 491.157 467.505 492.149 470.279 490.598Z" fill="#D9D9D9"/>
    <path d="M229.148 625.397C231.923 623.846 232.915 620.34 231.364 617.565C229.813 614.791 226.306 613.799 223.532 615.35C220.757 616.901 219.765 620.408 221.316 623.182C222.867 625.957 226.374 626.948 229.148 625.397Z" fill="#D9D9D9"/>
    <path d="M363.11 550.508C365.884 548.957 366.876 545.45 365.325 542.676C363.774 539.902 360.268 538.91 357.493 540.461C354.719 542.012 353.727 545.518 355.278 548.293C356.829 551.067 360.335 552.059 363.11 550.508Z" fill="#D9D9D9"/>
    <path d="M497.072 475.62C499.846 474.069 500.838 470.563 499.287 467.788C497.736 465.014 494.23 464.022 491.455 465.573C488.681 467.124 487.689 470.631 489.24 473.405C490.791 476.18 494.298 477.171 497.072 475.62Z" fill="#D9D9D9"/>
    <path d="M255.941 610.421C258.715 608.87 259.707 605.363 258.156 602.589C256.605 599.814 253.099 598.822 250.324 600.373C247.55 601.924 246.558 605.431 248.109 608.205C249.66 610.98 253.167 611.972 255.941 610.421Z" fill="#D9D9D9"/>
    <path d="M389.902 535.532C392.676 533.981 393.668 530.474 392.117 527.7C390.566 524.926 387.06 523.934 384.285 525.485C381.511 527.036 380.519 530.542 382.07 533.317C383.621 536.091 387.128 537.083 389.902 535.532Z" fill="#D9D9D9"/>
    <path d="M523.863 460.641C526.638 459.09 527.63 455.584 526.079 452.809C524.528 450.035 521.021 449.043 518.247 450.594C515.472 452.145 514.48 455.651 516.031 458.426C517.582 461.2 521.089 462.192 523.863 460.641Z" fill="#D9D9D9"/>
    <path d="M282.733 595.442C285.507 593.891 286.499 590.385 284.948 587.61C283.397 584.836 279.89 583.844 277.116 585.395C274.341 586.946 273.35 590.452 274.901 593.227C276.452 596.001 279.958 596.993 282.733 595.442Z" fill="#D9D9D9"/>
    <path d="M416.695 520.553C419.469 519.002 420.461 515.496 418.91 512.721C417.359 509.947 413.853 508.955 411.078 510.506C408.304 512.057 407.312 515.563 408.863 518.338C410.414 521.112 413.921 522.104 416.695 520.553Z" fill="#D9D9D9"/>
    <path d="M309.526 580.464C312.3 578.913 313.292 575.407 311.741 572.632C310.19 569.858 306.683 568.866 303.909 570.417C301.134 571.968 300.143 575.474 301.694 578.249C303.245 581.023 306.751 582.015 309.526 580.464Z" fill="#D9D9D9"/>
    <path d="M443.487 505.575C446.261 504.024 447.253 500.517 445.702 497.743C444.151 494.968 440.645 493.977 437.87 495.528C435.096 497.079 434.104 500.585 435.655 503.36C437.206 506.134 440.712 507.126 443.487 505.575Z" fill="#D9D9D9"/>
    <path d="M111.741 478.283C114.515 476.732 115.507 473.225 113.956 470.451C112.405 467.676 108.899 466.685 106.124 468.236C103.35 469.787 102.358 473.293 103.909 476.068C105.46 478.842 108.966 479.834 111.741 478.283Z" fill="#D9D9D9"/>
    <path d="M245.703 403.394C248.477 401.843 249.469 398.336 247.918 395.562C246.367 392.788 242.86 391.796 240.086 393.347C237.311 394.898 236.32 398.404 237.871 401.179C239.422 403.953 242.928 404.945 245.703 403.394Z" fill="#D9D9D9"/>
    <path d="M379.664 328.504C382.438 326.953 383.43 323.447 381.879 320.673C380.328 317.898 376.822 316.906 374.047 318.457C371.273 320.008 370.281 323.515 371.832 326.289C373.383 329.064 376.889 330.056 379.664 328.504Z" fill="#D9D9D9"/>
    <path d="M513.625 253.616C516.4 252.065 517.391 248.558 515.84 245.784C514.289 243.009 510.783 242.018 508.009 243.569C505.234 245.12 504.242 248.626 505.793 251.401C507.344 254.175 510.851 255.167 513.625 253.616Z" fill="#D9D9D9"/>
    <path d="M138.533 463.305C141.307 461.754 142.299 458.248 140.748 455.473C139.197 452.699 135.691 451.707 132.916 453.258C130.142 454.809 129.15 458.316 130.701 461.09C132.252 463.864 135.759 464.856 138.533 463.305Z" fill="#D9D9D9"/>
    <path d="M272.494 388.416C275.269 386.865 276.26 383.358 274.709 380.584C273.158 377.809 269.652 376.818 266.877 378.369C264.103 379.92 263.111 383.426 264.662 386.2C266.213 388.975 269.72 389.967 272.494 388.416Z" fill="#D9D9D9"/>
    <path d="M406.457 313.527C409.231 311.976 410.223 308.469 408.672 305.695C407.121 302.92 403.614 301.929 400.84 303.48C398.066 305.031 397.074 308.537 398.625 311.312C400.176 314.086 403.682 315.078 406.457 313.527Z" fill="#D9D9D9"/>
    <path d="M165.326 448.329C168.1 446.778 169.092 443.271 167.541 440.497C165.99 437.722 162.483 436.73 159.709 438.281C156.935 439.833 155.943 443.339 157.494 446.113C159.045 448.888 162.551 449.88 165.326 448.329Z" fill="#D9D9D9"/>
    <path d="M299.287 373.438C302.061 371.887 303.053 368.381 301.502 365.606C299.951 362.832 296.444 361.84 293.67 363.391C290.896 364.942 289.904 368.448 291.455 371.223C293.006 373.997 296.512 374.989 299.287 373.438Z" fill="#D9D9D9"/>
    <path d="M433.248 298.55C436.022 296.999 437.014 293.492 435.463 290.718C433.912 287.943 430.406 286.951 427.631 288.502C424.857 290.053 423.865 293.56 425.416 296.334C426.967 299.109 430.473 300.101 433.248 298.55Z" fill="#D9D9D9"/>
    <path d="M192.117 433.349C194.892 431.798 195.883 428.292 194.332 425.517C192.781 422.743 189.275 421.751 186.5 423.302C183.726 424.853 182.734 428.36 184.285 431.134C185.836 433.908 189.343 434.9 192.117 433.349Z" fill="#D9D9D9"/>
    <path d="M326.08 358.459C328.854 356.908 329.846 353.402 328.295 350.627C326.744 347.853 323.237 346.861 320.463 348.412C317.688 349.963 316.697 353.47 318.248 356.244C319.799 359.018 323.305 360.01 326.08 358.459Z" fill="#D9D9D9"/>
    <path d="M460.041 283.571C462.815 282.02 463.807 278.513 462.256 275.739C460.705 272.965 457.199 271.973 454.424 273.524C451.65 275.075 450.658 278.581 452.209 281.356C453.76 284.13 457.266 285.122 460.041 283.571Z" fill="#D9D9D9"/>
    <path d="M218.91 418.372C221.684 416.821 222.676 413.314 221.125 410.54C219.574 407.765 216.068 406.773 213.293 408.324C210.519 409.875 209.527 413.382 211.078 416.156C212.629 418.931 216.135 419.923 218.91 418.372Z" fill="#D9D9D9"/>
    <path d="M352.871 343.482C355.645 341.931 356.637 338.425 355.086 335.65C353.535 332.876 350.029 331.884 347.254 333.435C344.48 334.986 343.488 338.493 345.039 341.267C346.59 344.041 350.097 345.033 352.871 343.482Z" fill="#D9D9D9"/>
    <path d="M486.833 268.593C489.608 267.042 490.6 263.536 489.049 260.762C487.498 257.987 483.991 256.995 481.217 258.546C478.442 260.097 477.45 263.604 479.001 266.378C480.552 269.153 484.059 270.144 486.833 268.593Z" fill="#D9D9D9"/>
    <path d="M479.769 696.284C482.544 694.733 483.535 691.227 481.984 688.452C480.433 685.678 476.927 684.686 474.152 686.237C471.378 687.788 470.386 691.295 471.937 694.069C473.488 696.844 476.995 697.835 479.769 696.284Z" fill="#D9D9D9"/>
    <path d="M506.562 681.307C509.337 679.755 510.328 676.249 508.777 673.475C507.226 670.7 503.72 669.708 500.945 671.259C498.171 672.81 497.179 676.317 498.73 679.091C500.281 681.866 503.788 682.858 506.562 681.307Z" fill="#D9D9D9"/>
    <path d="M66.8074 397.907C69.5818 396.356 70.5736 392.849 69.0226 390.075C67.4716 387.301 63.9651 386.309 61.1907 387.86C58.4162 389.411 57.4245 392.917 58.9755 395.692C60.5265 398.466 64.0329 399.458 66.8074 397.907Z" fill="#D9D9D9"/>
    <path d="M200.769 323.017C203.543 321.466 204.535 317.959 202.984 315.185C201.433 312.41 197.927 311.419 195.152 312.97C192.378 314.521 191.386 318.027 192.937 320.802C194.488 323.576 197.994 324.568 200.769 323.017Z" fill="#D9D9D9"/>
    <path d="M334.73 248.127C337.505 246.576 338.496 243.07 336.945 240.295C335.394 237.521 331.888 236.529 329.114 238.08C326.339 239.631 325.347 243.138 326.898 245.912C328.449 248.687 331.956 249.678 334.73 248.127Z" fill="#D9D9D9"/>
    <path d="M468.692 173.238C471.466 171.687 472.458 168.18 470.907 165.406C469.356 162.632 465.849 161.64 463.075 163.191C460.301 164.742 459.309 168.248 460.86 171.023C462.411 173.797 465.917 174.789 468.692 173.238Z" fill="#D9D9D9"/>
    <path d="M93.5996 382.928C96.3741 381.377 97.3659 377.871 95.8148 375.096C94.2638 372.322 90.7574 371.33 87.9829 372.881C85.2085 374.432 84.2167 377.938 85.7677 380.713C87.3187 383.487 90.8252 384.479 93.5996 382.928Z" fill="#D9D9D9"/>
    <path d="M227.562 308.04C230.336 306.489 231.328 302.982 229.777 300.208C228.226 297.433 224.719 296.442 221.945 297.993C219.17 299.544 218.179 303.05 219.73 305.825C221.281 308.599 224.787 309.591 227.562 308.04Z" fill="#D9D9D9"/>
    <path d="M361.523 233.15C364.298 231.599 365.289 228.092 363.738 225.318C362.187 222.544 358.681 221.552 355.906 223.103C353.132 224.654 352.14 228.16 353.691 230.935C355.242 233.709 358.749 234.701 361.523 233.15Z" fill="#D9D9D9"/>
    <path d="M495.484 158.261C498.258 156.71 499.25 153.204 497.699 150.429C496.148 147.655 492.642 146.663 489.867 148.214C487.093 149.765 486.101 153.272 487.652 156.046C489.203 158.82 492.709 159.812 495.484 158.261Z" fill="#D9D9D9"/>
    <path d="M120.392 367.95C123.166 366.399 124.158 362.893 122.607 360.119C121.056 357.344 117.55 356.352 114.775 357.903C112.001 359.454 111.009 362.961 112.56 365.735C114.111 368.51 117.618 369.501 120.392 367.95Z" fill="#D9D9D9"/>
    <path d="M254.353 293.061C257.128 291.51 258.12 288.003 256.569 285.229C255.018 282.454 251.511 281.463 248.737 283.014C245.962 284.565 244.97 288.071 246.521 290.846C248.072 293.62 251.579 294.612 254.353 293.061Z" fill="#D9D9D9"/>
    <path d="M388.316 218.173C391.09 216.622 392.082 213.115 390.531 210.341C388.98 207.566 385.473 206.574 382.699 208.125C379.924 209.676 378.933 213.183 380.484 215.957C382.035 218.732 385.541 219.724 388.316 218.173Z" fill="#D9D9D9"/>
    <path d="M522.277 143.283C525.051 141.732 526.043 138.225 524.492 135.451C522.941 132.676 519.434 131.685 516.66 133.236C513.886 134.787 512.894 138.293 514.445 141.068C515.996 143.842 519.502 144.834 522.277 143.283Z" fill="#D9D9D9"/>
    <path d="M147.185 352.973C149.959 351.422 150.951 347.916 149.4 345.141C147.849 342.367 144.342 341.375 141.568 342.926C138.794 344.477 137.802 347.984 139.353 350.758C140.904 353.532 144.41 354.524 147.185 352.973Z" fill="#D9D9D9"/>
    <path d="M281.146 278.083C283.921 276.532 284.912 273.026 283.361 270.251C281.81 267.477 278.304 266.485 275.529 268.036C272.755 269.587 271.763 273.094 273.314 275.868C274.865 278.643 278.372 279.634 281.146 278.083Z" fill="#D9D9D9"/>
    <path d="M415.107 203.195C417.882 201.644 418.874 198.137 417.323 195.363C415.772 192.588 412.265 191.597 409.491 193.148C406.716 194.699 405.724 198.205 407.276 200.98C408.827 203.754 412.333 204.746 415.107 203.195Z" fill="#D9D9D9"/>
    <path d="M173.976 337.996C176.751 336.445 177.743 332.938 176.192 330.164C174.641 327.389 171.134 326.397 168.36 327.948C165.585 329.499 164.593 333.006 166.144 335.78C167.695 338.555 171.202 339.547 173.976 337.996Z" fill="#D9D9D9"/>
    <path d="M307.938 263.105C310.713 261.554 311.705 258.047 310.154 255.273C308.603 252.498 305.096 251.507 302.322 253.058C299.547 254.609 298.555 258.115 300.106 260.89C301.657 263.664 305.164 264.656 307.938 263.105Z" fill="#D9D9D9"/>
    <path d="M441.9 188.216C444.674 186.665 445.666 183.159 444.115 180.385C442.564 177.61 439.058 176.618 436.283 178.169C433.509 179.72 432.517 183.227 434.068 186.001C435.619 188.776 439.125 189.767 441.9 188.216Z" fill="#D9D9D9"/>
    <path d="M381.25 645.864C384.025 644.313 385.016 640.807 383.465 638.032C381.914 635.258 378.408 634.266 375.634 635.817C372.859 637.368 371.867 640.875 373.418 643.649C374.969 646.423 378.476 647.415 381.25 645.864Z" fill="#D9D9D9"/>
    <path d="M515.213 570.973C517.987 569.422 518.979 565.915 517.428 563.141C515.877 560.366 512.37 559.375 509.596 560.926C506.822 562.477 505.83 565.983 507.381 568.757C508.932 571.532 512.438 572.524 515.213 570.973Z" fill="#D9D9D9"/>
    <path d="M408.043 630.884C410.818 629.333 411.81 625.827 410.259 623.052C408.708 620.278 405.201 619.286 402.427 620.837C399.652 622.388 398.66 625.895 400.211 628.669C401.762 631.443 405.269 632.435 408.043 630.884Z" fill="#D9D9D9"/>
    <path d="M300.874 690.797C303.649 689.246 304.641 685.74 303.09 682.965C301.538 680.191 298.032 679.199 295.258 680.75C292.483 682.301 291.491 685.807 293.042 688.582C294.593 691.356 298.1 692.348 300.874 690.797Z" fill="#D9D9D9"/>
    <path d="M434.836 615.907C437.61 614.356 438.602 610.849 437.051 608.075C435.5 605.301 431.993 604.309 429.219 605.86C426.444 607.411 425.453 610.917 427.004 613.692C428.555 616.466 432.061 617.458 434.836 615.907Z" fill="#D9D9D9"/>
    <path d="M327.666 675.817C330.441 674.266 331.432 670.76 329.881 667.986C328.33 665.211 324.824 664.219 322.049 665.77C319.275 667.321 318.283 670.828 319.834 673.602C321.385 676.377 324.892 677.368 327.666 675.817Z" fill="#D9D9D9"/>
    <path d="M461.629 600.93C464.403 599.379 465.395 595.872 463.844 593.098C462.293 590.324 458.786 589.332 456.012 590.883C453.237 592.434 452.246 595.94 453.797 598.715C455.348 601.489 458.854 602.481 461.629 600.93Z" fill="#D9D9D9"/>
    <path d="M354.459 660.84C357.233 659.289 358.225 655.782 356.674 653.008C355.123 650.233 351.617 649.241 348.842 650.792C346.068 652.343 345.076 655.85 346.627 658.624C348.178 661.399 351.685 662.391 354.459 660.84Z" fill="#D9D9D9"/>
    <path d="M488.42 585.951C491.194 584.4 492.186 580.894 490.635 578.119C489.084 575.345 485.578 574.353 482.803 575.904C480.029 577.455 479.037 580.962 480.588 583.736C482.139 586.51 485.645 587.502 488.42 585.951Z" fill="#D9D9D9"/>
    <path d="M156.675 558.66C159.449 557.109 160.441 553.602 158.89 550.828C157.339 548.053 153.833 547.062 151.058 548.613C148.284 550.164 147.292 553.67 148.843 556.444C150.394 559.219 153.9 560.211 156.675 558.66Z" fill="#D9D9D9"/>
    <path d="M290.636 483.771C293.411 482.22 294.402 478.714 292.851 475.939C291.3 473.165 287.794 472.173 285.019 473.724C282.245 475.275 281.253 478.781 282.804 481.556C284.355 484.33 287.862 485.322 290.636 483.771Z" fill="#D9D9D9"/>
    <path d="M424.597 408.882C427.372 407.331 428.364 403.824 426.813 401.05C425.262 398.275 421.755 397.283 418.981 398.834C416.206 400.385 415.214 403.892 416.765 406.666C418.317 409.441 421.823 410.433 424.597 408.882Z" fill="#D9D9D9"/>
    <path d="M183.466 543.681C186.241 542.13 187.233 538.624 185.682 535.849C184.131 533.075 180.624 532.083 177.85 533.634C175.075 535.185 174.083 538.692 175.634 541.466C177.185 544.241 180.692 545.232 183.466 543.681Z" fill="#D9D9D9"/>
    <path d="M317.429 468.792C320.203 467.241 321.195 463.735 319.644 460.96C318.093 458.186 314.587 457.194 311.812 458.745C309.038 460.296 308.046 463.803 309.597 466.577C311.148 469.352 314.654 470.343 317.429 468.792Z" fill="#D9D9D9"/>
    <path d="M451.39 393.904C454.165 392.353 455.157 388.846 453.606 386.072C452.055 383.297 448.548 382.306 445.774 383.857C442.999 385.408 442.007 388.914 443.558 391.689C445.109 394.463 448.616 395.455 451.39 393.904Z" fill="#D9D9D9"/>
    <path d="M210.259 528.705C213.034 527.154 214.025 523.647 212.474 520.873C210.923 518.098 207.417 517.107 204.642 518.658C201.868 520.209 200.876 523.715 202.427 526.49C203.978 529.264 207.485 530.256 210.259 528.705Z" fill="#D9D9D9"/>
    <path d="M344.22 453.815C346.995 452.264 347.987 448.758 346.436 445.983C344.885 443.209 341.378 442.217 338.604 443.768C335.829 445.319 334.837 448.825 336.388 451.6C337.939 454.374 341.446 455.366 344.22 453.815Z" fill="#D9D9D9"/>
    <path d="M478.183 378.925C480.957 377.374 481.949 373.868 480.398 371.093C478.847 368.319 475.34 367.327 472.566 368.878C469.791 370.429 468.8 373.936 470.351 376.71C471.902 379.484 475.408 380.476 478.183 378.925Z" fill="#D9D9D9"/>
    <path d="M237.052 513.727C239.826 512.176 240.818 508.67 239.267 505.895C237.716 503.121 234.21 502.129 231.435 503.68C228.661 505.231 227.669 508.737 229.22 511.512C230.771 514.286 234.277 515.278 237.052 513.727Z" fill="#D9D9D9"/>
    <path d="M371.013 438.837C373.788 437.286 374.779 433.78 373.228 431.006C371.677 428.231 368.171 427.239 365.397 428.79C362.622 430.341 361.63 433.848 363.181 436.622C364.732 439.397 368.239 440.388 371.013 438.837Z" fill="#D9D9D9"/>
    <path d="M504.974 363.948C507.749 362.397 508.741 358.891 507.19 356.116C505.639 353.342 502.132 352.35 499.358 353.901C496.583 355.452 495.592 358.958 497.143 361.733C498.694 364.507 502.2 365.499 504.974 363.948Z" fill="#D9D9D9"/>
    <path d="M263.844 498.749C266.618 497.198 267.61 493.691 266.059 490.917C264.508 488.142 261.001 487.151 258.227 488.702C255.452 490.253 254.461 493.759 256.012 496.534C257.563 499.308 261.069 500.3 263.844 498.749Z" fill="#D9D9D9"/>
    <path d="M397.805 423.86C400.579 422.309 401.571 418.802 400.02 416.028C398.469 413.253 394.962 412.262 392.188 413.813C389.413 415.364 388.422 418.87 389.973 421.645C391.524 424.419 395.03 425.411 397.805 423.86Z" fill="#D9D9D9"/>
    <path d="M44.3406 357.718C47.115 356.167 48.1068 352.66 46.5558 349.886C45.0048 347.111 41.4983 346.119 38.7239 347.67C35.9494 349.221 34.9577 352.728 36.5087 355.502C38.0597 358.277 41.5661 359.269 44.3406 357.718Z" fill="#D9D9D9"/>
    <path d="M178.302 282.828C181.076 281.277 182.068 277.771 180.517 274.996C178.966 272.222 175.459 271.23 172.685 272.781C169.911 274.332 168.919 277.838 170.47 280.613C172.021 283.387 175.527 284.379 178.302 282.828Z" fill="#D9D9D9"/>
    <path d="M312.264 207.938C315.039 206.387 316.031 202.881 314.48 200.106C312.928 197.332 309.422 196.34 306.648 197.891C303.873 199.442 302.881 202.949 304.432 205.723C305.983 208.498 309.49 209.489 312.264 207.938Z" fill="#D9D9D9"/>
    <path d="M446.225 133.05C448.999 131.499 449.991 127.992 448.44 125.218C446.889 122.443 443.383 121.452 440.608 123.003C437.834 124.554 436.842 128.06 438.393 130.835C439.944 133.609 443.451 134.601 446.225 133.05Z" fill="#D9D9D9"/>
    <path d="M71.1327 342.739C73.9071 341.188 74.8989 337.682 73.3479 334.907C71.7969 332.133 68.2904 331.141 65.516 332.692C62.7416 334.243 61.7498 337.75 63.3008 340.524C64.8518 343.298 68.3583 344.29 71.1327 342.739Z" fill="#D9D9D9"/>
    <path d="M205.094 267.85C207.869 266.299 208.86 262.793 207.309 260.019C205.758 257.244 202.252 256.252 199.478 257.803C196.703 259.354 195.711 262.861 197.262 265.635C198.813 268.41 202.32 269.402 205.094 267.85Z" fill="#D9D9D9"/>
    <path d="M339.056 192.962C341.83 191.411 342.822 187.904 341.271 185.13C339.72 182.356 336.213 181.364 333.439 182.915C330.664 184.466 329.673 187.972 331.224 190.747C332.775 193.521 336.281 194.513 339.056 192.962Z" fill="#D9D9D9"/>
    <path d="M473.018 118.072C475.792 116.521 476.784 113.015 475.233 110.24C473.682 107.466 470.176 106.474 467.401 108.025C464.627 109.576 463.635 113.083 465.186 115.857C466.737 118.632 470.244 119.623 473.018 118.072Z" fill="#D9D9D9"/>
    <path d="M97.9253 327.762C100.7 326.211 101.692 322.704 100.141 319.93C98.5895 317.155 95.083 316.163 92.3086 317.714C89.5342 319.265 88.5424 322.772 90.0934 325.546C91.6444 328.321 95.1509 329.313 97.9253 327.762Z" fill="#D9D9D9"/>
    <path d="M231.887 252.872C234.662 251.321 235.653 247.814 234.102 245.04C232.551 242.265 229.045 241.274 226.271 242.825C223.496 244.376 222.504 247.882 224.055 250.657C225.606 253.431 229.113 254.423 231.887 252.872Z" fill="#D9D9D9"/>
    <path d="M365.848 177.983C368.623 176.432 369.615 172.926 368.064 170.152C366.513 167.377 363.006 166.385 360.232 167.936C357.457 169.487 356.465 172.994 358.016 175.768C359.567 178.543 363.074 179.534 365.848 177.983Z" fill="#D9D9D9"/>
    <path d="M499.811 103.094C502.585 101.543 503.577 98.037 502.026 95.2625C500.475 92.4881 496.969 91.4963 494.194 93.0473C491.42 94.5983 490.428 98.1048 491.979 100.879C493.53 103.654 497.036 104.645 499.811 103.094Z" fill="#D9D9D9"/>
    <path d="M124.717 312.784C127.492 311.233 128.484 307.726 126.933 304.952C125.382 302.178 121.875 301.186 119.101 302.737C116.326 304.288 115.334 307.794 116.885 310.569C118.436 313.343 121.943 314.335 124.717 312.784Z" fill="#D9D9D9"/>
    <path d="M258.679 237.894C261.453 236.343 262.445 232.837 260.894 230.063C259.343 227.288 255.836 226.296 253.062 227.847C250.288 229.398 249.296 232.905 250.847 235.679C252.398 238.454 255.904 239.445 258.679 237.894Z" fill="#D9D9D9"/>
    <path d="M392.641 163.006C395.415 161.455 396.407 157.948 394.856 155.174C393.305 152.399 389.799 151.408 387.024 152.959C384.25 154.51 383.258 158.016 384.809 160.791C386.36 163.565 389.866 164.557 392.641 163.006Z" fill="#D9D9D9"/>
    <path d="M526.602 88.1165C529.377 86.5655 530.368 83.059 528.817 80.2846C527.266 77.5101 523.76 76.5183 520.985 78.0693C518.211 79.6204 517.219 83.1268 518.77 85.9013C520.321 88.6757 523.828 89.6675 526.602 88.1165Z" fill="#D9D9D9"/>
    <path d="M151.51 297.806C154.284 296.255 155.276 292.748 153.725 289.974C152.174 287.199 148.668 286.208 145.893 287.759C143.119 289.31 142.127 292.816 143.678 295.59C145.229 298.365 148.736 299.357 151.51 297.806Z" fill="#D9D9D9"/>
    <path d="M285.471 222.916C288.246 221.365 289.238 217.858 287.687 215.084C286.136 212.31 282.629 211.318 279.855 212.869C277.08 214.42 276.088 217.926 277.639 220.701C279.19 223.475 282.697 224.467 285.471 222.916Z" fill="#D9D9D9"/>
    <path d="M419.433 148.028C422.207 146.477 423.199 142.971 421.648 140.196C420.097 137.422 416.59 136.43 413.816 137.981C411.042 139.532 410.05 143.039 411.601 145.813C413.152 148.588 416.658 149.579 419.433 148.028Z" fill="#D9D9D9"/>
    <path d="M224.823 680.564C227.597 679.013 228.589 675.507 227.038 672.732C225.487 669.958 221.981 668.966 219.206 670.517C216.432 672.068 215.44 675.575 216.991 678.349C218.542 681.123 222.049 682.115 224.823 680.564Z" fill="#D9D9D9"/>
    <path d="M358.784 605.674C361.559 604.123 362.551 600.616 361 597.842C359.449 595.068 355.942 594.076 353.168 595.627C350.393 597.178 349.401 600.684 350.952 603.459C352.503 606.233 356.01 607.225 358.784 605.674Z" fill="#D9D9D9"/>
    <path d="M492.746 530.786C495.52 529.235 496.512 525.729 494.961 522.954C493.41 520.18 489.903 519.188 487.129 520.739C484.355 522.29 483.363 525.796 484.914 528.571C486.465 531.345 489.971 532.337 492.746 530.786Z" fill="#D9D9D9"/>
    <path d="M251.616 665.586C254.39 664.035 255.382 660.528 253.831 657.754C252.28 654.979 248.773 653.987 245.999 655.538C243.224 657.089 242.233 660.596 243.784 663.37C245.335 666.145 248.841 667.137 251.616 665.586Z" fill="#D9D9D9"/>
    <path d="M385.577 590.697C388.351 589.146 389.343 585.64 387.792 582.865C386.241 580.091 382.735 579.099 379.96 580.65C377.186 582.201 376.194 585.707 377.745 588.482C379.296 591.256 382.802 592.248 385.577 590.697Z" fill="#D9D9D9"/>
    <path d="M519.538 515.808C522.313 514.257 523.304 510.75 521.753 507.976C520.202 505.201 516.696 504.209 513.921 505.761C511.147 507.312 510.155 510.818 511.706 513.592C513.257 516.367 516.764 517.359 519.538 515.808Z" fill="#D9D9D9"/>
    <path d="M278.407 650.608C281.182 649.057 282.173 645.55 280.622 642.776C279.071 640.001 275.565 639.01 272.791 640.561C270.016 642.112 269.024 645.618 270.575 648.393C272.126 651.167 275.633 652.159 278.407 650.608Z" fill="#D9D9D9"/>
    <path d="M412.37 575.718C415.144 574.167 416.136 570.661 414.585 567.886C413.034 565.112 409.527 564.12 406.753 565.671C403.979 567.222 402.987 570.729 404.538 573.503C406.089 576.278 409.595 577.269 412.37 575.718Z" fill="#D9D9D9"/>
    <path d="M305.2 635.631C307.975 634.08 308.966 630.574 307.415 627.799C305.864 625.025 302.358 624.033 299.583 625.584C296.809 627.135 295.817 630.642 297.368 633.416C298.919 636.191 302.426 637.182 305.2 635.631Z" fill="#D9D9D9"/>
    <path d="M439.163 560.741C441.937 559.19 442.929 555.684 441.378 552.909C439.827 550.135 436.32 549.143 433.546 550.694C430.771 552.245 429.78 555.751 431.331 558.526C432.882 561.3 436.388 562.292 439.163 560.741Z" fill="#D9D9D9"/>
    <path d="M331.992 620.652C334.767 619.101 335.759 615.595 334.208 612.82C332.657 610.046 329.15 609.054 326.376 610.605C323.601 612.156 322.61 615.663 324.161 618.437C325.712 621.212 329.218 622.203 331.992 620.652Z" fill="#D9D9D9"/>
    <path d="M465.954 545.764C468.728 544.213 469.72 540.706 468.169 537.932C466.618 535.158 463.112 534.166 460.337 535.717C457.563 537.268 456.571 540.774 458.122 543.549C459.673 546.323 463.179 547.315 465.954 545.764Z" fill="#D9D9D9"/>
    <path d="M134.208 518.472C136.982 516.921 137.974 513.414 136.423 510.64C134.872 507.865 131.365 506.874 128.591 508.425C125.817 509.976 124.825 513.482 126.376 516.256C127.927 519.031 131.433 520.023 134.208 518.472Z" fill="#D9D9D9"/>
    <path d="M268.169 443.582C270.943 442.031 271.935 438.525 270.384 435.75C268.833 432.976 265.327 431.984 262.552 433.535C259.778 435.086 258.786 438.593 260.337 441.367C261.888 444.142 265.394 445.133 268.169 443.582Z" fill="#D9D9D9"/>
    <path d="M402.131 368.692C404.905 367.141 405.897 363.635 404.346 360.86C402.795 358.086 399.288 357.094 396.514 358.645C393.74 360.196 392.748 363.703 394.299 366.477C395.85 369.252 399.356 370.243 402.131 368.692Z" fill="#D9D9D9"/>
    <path d="M161 503.493C163.774 501.942 164.766 498.435 163.215 495.661C161.664 492.886 158.158 491.895 155.383 493.446C152.609 494.997 151.617 498.503 153.168 501.278C154.719 504.052 158.226 505.044 161 503.493Z" fill="#D9D9D9"/>
    <path d="M294.961 428.605C297.736 427.054 298.728 423.547 297.177 420.773C295.625 417.998 292.119 417.006 289.345 418.558C286.57 420.109 285.578 423.615 287.129 426.389C288.68 429.164 292.187 430.156 294.961 428.605Z" fill="#D9D9D9"/>
    <path d="M428.923 353.715C431.697 352.164 432.689 348.658 431.138 345.883C429.587 343.109 426.08 342.117 423.306 343.668C420.532 345.219 419.54 348.725 421.091 351.5C422.642 354.274 426.148 355.266 428.923 353.715Z" fill="#D9D9D9"/>
    <path d="M187.792 488.516C190.566 486.965 191.558 483.458 190.007 480.684C188.456 477.909 184.95 476.918 182.175 478.469C179.401 480.02 178.409 483.526 179.96 486.301C181.511 489.075 185.017 490.067 187.792 488.516Z" fill="#D9D9D9"/>
    <path d="M321.754 413.626C324.529 412.075 325.52 408.568 323.969 405.794C322.418 403.019 318.912 402.028 316.138 403.579C313.363 405.13 312.371 408.636 313.922 411.411C315.473 414.185 318.98 415.177 321.754 413.626Z" fill="#D9D9D9"/>
    <path d="M455.716 338.736C458.49 337.185 459.482 333.679 457.931 330.904C456.38 328.13 452.873 327.138 450.099 328.689C447.324 330.24 446.333 333.747 447.884 336.521C449.435 339.296 452.941 340.287 455.716 338.736Z" fill="#D9D9D9"/>
    <path d="M214.585 473.538C217.359 471.987 218.351 468.481 216.8 465.706C215.249 462.932 211.742 461.94 208.968 463.491C206.193 465.042 205.202 468.548 206.753 471.323C208.304 474.097 211.81 475.089 214.585 473.538Z" fill="#D9D9D9"/>
    <path d="M348.546 398.647C351.32 397.096 352.312 393.59 350.761 390.816C349.21 388.041 345.703 387.049 342.929 388.6C340.155 390.151 339.163 393.658 340.714 396.432C342.265 399.207 345.771 400.199 348.546 398.647Z" fill="#D9D9D9"/>
    <path d="M482.508 323.759C485.282 322.208 486.274 318.701 484.723 315.927C483.172 313.152 479.666 312.161 476.891 313.712C474.117 315.263 473.125 318.769 474.676 321.543C476.227 324.318 479.734 325.31 482.508 323.759Z" fill="#D9D9D9"/>
    <path d="M241.377 458.561C244.152 457.01 245.143 453.503 243.592 450.729C242.041 447.954 238.535 446.962 235.761 448.513C232.986 450.064 231.994 453.571 233.545 456.345C235.096 459.12 238.603 460.112 241.377 458.561Z" fill="#D9D9D9"/>
    <path d="M375.339 383.671C378.113 382.12 379.105 378.614 377.554 375.839C376.003 373.065 372.496 372.073 369.722 373.624C366.947 375.175 365.956 378.681 367.507 381.456C369.058 384.23 372.564 385.222 375.339 383.671Z" fill="#D9D9D9"/>
    <path d="M509.3 308.782C512.074 307.231 513.066 303.724 511.515 300.95C509.964 298.175 506.458 297.183 503.683 298.734C500.909 300.285 499.917 303.792 501.468 306.566C503.019 309.341 506.525 310.333 509.3 308.782Z" fill="#D9D9D9"/>
    <path d="M89.2743 438.096C92.0487 436.545 93.0405 433.038 91.4895 430.264C89.9385 427.489 86.432 426.497 83.6576 428.048C80.8832 429.599 79.8914 433.106 81.4424 435.88C82.9934 438.655 86.4999 439.647 89.2743 438.096Z" fill="#D9D9D9"/>
    <path d="M223.235 363.206C226.01 361.655 227.001 358.149 225.45 355.374C223.899 352.6 220.393 351.608 217.618 353.159C214.844 354.71 213.852 358.217 215.403 360.991C216.954 363.765 220.461 364.757 223.235 363.206Z" fill="#D9D9D9"/>
    <path d="M357.198 288.317C359.972 286.766 360.964 283.259 359.413 280.485C357.862 277.71 354.356 276.719 351.581 278.27C348.807 279.821 347.815 283.327 349.366 286.101C350.917 288.876 354.423 289.868 357.198 288.317Z" fill="#D9D9D9"/>
    <path d="M491.159 213.427C493.933 211.876 494.925 208.369 493.374 205.595C491.823 202.82 488.316 201.829 485.542 203.38C482.767 204.931 481.776 208.437 483.327 211.211C484.878 213.986 488.384 214.978 491.159 213.427Z" fill="#D9D9D9"/>
    <path d="M116.067 423.116C118.841 421.565 119.833 418.058 118.282 415.284C116.731 412.509 113.224 411.518 110.45 413.069C107.676 414.62 106.684 418.126 108.235 420.901C109.786 423.675 113.292 424.667 116.067 423.116Z" fill="#D9D9D9"/>
    <path d="M250.028 348.227C252.802 346.676 253.794 343.17 252.243 340.395C250.692 337.621 247.186 336.629 244.411 338.18C241.637 339.731 240.645 343.238 242.196 346.012C243.747 348.787 247.253 349.778 250.028 348.227Z" fill="#D9D9D9"/>
    <path d="M383.989 273.338C386.764 271.787 387.755 268.28 386.204 265.506C384.653 262.732 381.147 261.74 378.372 263.291C375.598 264.842 374.606 268.348 376.157 271.123C377.708 273.897 381.215 274.889 383.989 273.338Z" fill="#D9D9D9"/>
    <path d="M517.952 198.449C520.726 196.898 521.718 193.392 520.167 190.617C518.616 187.843 515.109 186.851 512.335 188.402C509.56 189.953 508.569 193.46 510.12 196.234C511.671 199.008 515.177 200 517.952 198.449Z" fill="#D9D9D9"/>
    <path d="M142.859 408.139C145.634 406.588 146.626 403.081 145.075 400.307C143.524 397.532 140.017 396.541 137.243 398.092C134.468 399.643 133.476 403.149 135.027 405.923C136.578 408.698 140.085 409.69 142.859 408.139Z" fill="#D9D9D9"/>
    <path d="M276.821 333.249C279.595 331.698 280.587 328.191 279.036 325.417C277.485 322.642 273.978 321.651 271.204 323.202C268.43 324.753 267.438 328.259 268.989 331.033C270.54 333.808 274.046 334.8 276.821 333.249Z" fill="#D9D9D9"/>
    <path d="M410.782 258.36C413.556 256.809 414.548 253.303 412.997 250.528C411.446 247.754 407.94 246.762 405.165 248.313C402.391 249.864 401.399 253.371 402.95 256.145C404.501 258.92 408.008 259.911 410.782 258.36Z" fill="#D9D9D9"/>
    <path d="M169.651 393.16C172.425 391.609 173.417 388.102 171.866 385.328C170.315 382.554 166.809 381.562 164.034 383.113C161.26 384.664 160.268 388.17 161.819 390.945C163.37 393.719 166.877 394.711 169.651 393.16Z" fill="#D9D9D9"/>
    <path d="M303.612 318.272C306.387 316.721 307.378 313.214 305.827 310.44C304.276 307.665 300.77 306.673 297.995 308.224C295.221 309.775 294.229 313.282 295.78 316.056C297.331 318.831 300.838 319.823 303.612 318.272Z" fill="#D9D9D9"/>
    <path d="M437.574 243.383C440.349 241.832 441.341 238.325 439.79 235.551C438.239 232.776 434.732 231.785 431.958 233.336C429.183 234.887 428.192 238.393 429.743 241.168C431.294 243.942 434.8 244.934 437.574 243.383Z" fill="#D9D9D9"/>
    <path d="M196.444 378.182C199.218 376.631 200.21 373.125 198.659 370.35C197.108 367.576 193.601 366.584 190.827 368.135C188.052 369.686 187.061 373.193 188.612 375.967C190.163 378.741 193.669 379.733 196.444 378.182Z" fill="#D9D9D9"/>
    <path d="M330.405 303.294C333.179 301.743 334.171 298.236 332.62 295.462C331.069 292.687 327.563 291.696 324.788 293.247C322.014 294.798 321.022 298.304 322.573 301.079C324.124 303.853 327.63 304.845 330.405 303.294Z" fill="#D9D9D9"/>
    <path d="M464.366 228.404C467.141 226.853 468.132 223.347 466.581 220.572C465.03 217.798 461.524 216.806 458.75 218.357C455.975 219.908 454.983 223.415 456.534 226.189C458.085 228.964 461.592 229.955 464.366 228.404Z" fill="#D9D9D9"/>
    <path d="M403.718 686.049C406.492 684.498 407.484 680.992 405.933 678.217C404.382 675.443 400.876 674.451 398.101 676.002C395.327 677.553 394.335 681.06 395.886 683.834C397.437 686.609 400.943 687.6 403.718 686.049Z" fill="#D9D9D9"/>
    <path d="M430.509 671.073C433.284 669.522 434.275 666.015 432.724 663.241C431.173 660.466 427.667 659.475 424.893 661.026C422.118 662.577 421.126 666.083 422.677 668.857C424.228 671.632 427.735 672.624 430.509 671.073Z" fill="#D9D9D9"/>
    <path d="M457.302 656.096C460.077 654.545 461.068 651.039 459.517 648.264C457.966 645.49 454.46 644.498 451.685 646.049C448.911 647.6 447.919 651.106 449.47 653.881C451.021 656.655 454.528 657.647 457.302 656.096Z" fill="#D9D9D9"/>
    <path d="M484.093 641.117C486.868 639.566 487.86 636.06 486.309 633.285C484.758 630.511 481.251 629.519 478.477 631.07C475.702 632.621 474.711 636.128 476.262 638.902C477.813 641.676 481.319 642.668 484.093 641.117Z" fill="#D9D9D9"/>
    <path d="M510.886 626.139C513.661 624.588 514.653 621.081 513.102 618.307C511.551 615.532 508.044 614.541 505.27 616.092C502.495 617.643 501.503 621.149 503.054 623.923C504.605 626.698 508.112 627.69 510.886 626.139Z" fill="#D9D9D9"/>
    <path d="M179.141 598.847C181.915 597.296 182.907 593.79 181.356 591.015C179.805 588.241 176.299 587.249 173.524 588.8C170.75 590.351 169.758 593.858 171.309 596.632C172.86 599.406 176.367 600.398 179.141 598.847Z" fill="#D9D9D9"/>
    <path d="M313.102 523.958C315.876 522.407 316.868 518.9 315.317 516.126C313.766 513.351 310.26 512.36 307.485 513.911C304.711 515.462 303.719 518.968 305.27 521.743C306.821 524.517 310.328 525.509 313.102 523.958Z" fill="#D9D9D9"/>
    <path d="M447.063 449.07C449.838 447.519 450.83 444.013 449.279 441.238C447.728 438.464 444.221 437.472 441.447 439.023C438.672 440.574 437.68 444.081 439.231 446.855C440.782 449.63 444.289 450.621 447.063 449.07Z" fill="#D9D9D9"/>
    <path d="M205.934 583.869C208.708 582.318 209.7 578.811 208.149 576.037C206.598 573.262 203.091 572.27 200.317 573.821C197.543 575.372 196.551 578.879 198.102 581.653C199.653 584.428 203.159 585.42 205.934 583.869Z" fill="#D9D9D9"/>
    <path d="M339.895 508.979C342.669 507.428 343.661 503.922 342.11 501.148C340.559 498.373 337.053 497.381 334.278 498.932C331.504 500.483 330.512 503.99 332.063 506.764C333.614 509.539 337.12 510.53 339.895 508.979Z" fill="#D9D9D9"/>
    <path d="M473.856 434.091C476.631 432.54 477.623 429.033 476.072 426.259C474.521 423.484 471.014 422.492 468.24 424.043C465.465 425.594 464.473 429.101 466.024 431.875C467.575 434.65 471.082 435.642 473.856 434.091Z" fill="#D9D9D9"/>
    <path d="M232.725 568.892C235.5 567.341 236.491 563.834 234.94 561.06C233.389 558.285 229.883 557.294 227.109 558.845C224.334 560.396 223.342 563.902 224.893 566.677C226.444 569.451 229.951 570.443 232.725 568.892Z" fill="#D9D9D9"/>
    <path d="M366.687 494.003C369.461 492.452 370.453 488.945 368.902 486.171C367.351 483.397 363.845 482.405 361.07 483.956C358.296 485.507 357.304 489.013 358.855 491.788C360.406 494.562 363.912 495.554 366.687 494.003Z" fill="#D9D9D9"/>
    <path d="M500.649 419.113C503.424 417.562 504.415 414.056 502.864 411.281C501.313 408.507 497.807 407.515 495.032 409.066C492.258 410.617 491.266 414.124 492.817 416.898C494.368 419.673 497.875 420.664 500.649 419.113Z" fill="#D9D9D9"/>
    <path d="M259.518 553.914C262.292 552.363 263.284 548.857 261.733 546.082C260.182 543.308 256.676 542.316 253.901 543.867C251.127 545.418 250.135 548.925 251.686 551.699C253.237 554.474 256.744 555.465 259.518 553.914Z" fill="#D9D9D9"/>
    <path d="M393.479 479.025C396.254 477.474 397.245 473.968 395.694 471.193C394.143 468.419 390.637 467.427 387.862 468.978C385.088 470.529 384.096 474.036 385.647 476.81C387.198 479.584 390.705 480.576 393.479 479.025Z" fill="#D9D9D9"/>
    <path d="M527.44 404.136C530.215 402.585 531.207 399.078 529.656 396.304C528.105 393.529 524.598 392.538 521.824 394.089C519.049 395.64 518.058 399.146 519.609 401.921C521.16 404.695 524.666 405.687 527.44 404.136Z" fill="#D9D9D9"/>
    <path d="M286.31 538.937C289.084 537.386 290.076 533.879 288.525 531.105C286.974 528.33 283.468 527.338 280.693 528.889C277.919 530.44 276.927 533.947 278.478 536.721C280.029 539.496 283.535 540.488 286.31 538.937Z" fill="#D9D9D9"/>
    <path d="M420.272 464.047C423.047 462.496 424.038 458.99 422.487 456.215C420.936 453.441 417.43 452.449 414.655 454C411.881 455.551 410.889 459.057 412.44 461.832C413.991 464.606 417.498 465.598 420.272 464.047Z" fill="#D9D9D9"/>
    </mask>
    <g mask="url(#mask0_316_223)">
    <path d="M519 0H0V683.588H519V0Z" fill="url(#paint0_linear_316_223)"/>
    </g>
    </g>
    <defs>
    <linearGradient id="paint0_linear_316_223" x1="86.0241" y1="297.242" x2="576.886" y2="366.114" gradientUnits="userSpaceOnUse">
    <stop stop-color="#6241E3"/>
    <stop offset="1" stop-color="#FF3C85"/>
    </linearGradient>
    <clipPath id="clip0_316_223">
    <rect width="519" height="683.588" fill="white"/>
    </clipPath>
    </defs>
    </svg>
    